<?xml version="1.0" encoding="utf-8"?>
<!-- Generator: Adobe Illustrator 25.2.3, SVG Export Plug-In . SVG Version: 6.00 Build 0)  -->
<svg version="1.1" id="Layer_1" xmlns="http://www.w3.org/2000/svg" xmlns:xlink="http://www.w3.org/1999/xlink" x="0px" y="0px"
	 viewBox="0 0 2000 2000" style="enable-background:new 0 0 2000 2000;" xml:space="preserve">
<style type="text/css">
	.st0{fill:#D3D3D3;}
	.st1{fill:#6B103F;}
	.st2{fill:#D1D3D4;}
</style>
<g>
	<path class="st0" d="M987.46,620.72c8.01-0.97,15.72-1.55,23.78-1.61c-28.02,0.11-51.38,5.33-77.45,15.6
		c-12.41,5.27-22.47,10.65-33.85,17.72c0.16-0.12,0.33-0.23,0.48-0.36c0.06-0.05,0.12-0.09,0.2-0.14c-0.72,0.39-1.42,0.77-2.12,1.17
		c0.31-0.19-0.61,0.56-0.41,0.46c0.06-0.05,0.12-0.09,0.2-0.14c0.47-0.29,0.95-0.59,1.43-0.87c-2.54,1.75-9.53,6.8-2.29,1.52
		c-0.08,0.05-0.14,0.08-0.22,0.12c0.06-0.05,0.12-0.09,0.2-0.14c0.19-0.14,0.37-0.29,0.58-0.43c-0.48,0.29-0.97,0.59-1.43,0.88
		c0.39-0.28,0.76-0.57,1.15-0.85c-9.37,5.4,4.85-4.19,5.86-4.89c-0.31,0.32-0.31,0.39-0.53,0.74c0,0.06,13.86-9.14,15.84-10.36
		c-4.99,2.86-9.87,5.87-14.61,9.14c3.13-2.33,6.22-4.7,9.4-6.99c2.42-1.34,4.86-2.66,7.33-3.91c-2.2,1.08-4.38,2.18-6.53,3.34
		c2.45-1.72,3.68-2.35,6.35-3.73c-1.22,0.6-2.42,1.22-3.62,1.84c0.16-0.12,0.34-0.25,0.51-0.36c4.83-2.61,9.59-4.95,14.64-7.13
		c0.37-0.17,0.76-0.34,1.15-0.51c-2.9,0.91,1.59-0.93,1.78-1c0.94-0.37,11.16-4.42,4.71-2.1c-2.67,0.97-5.25,1.98-7.84,3.14
		c-1.61,0.71-3.18,1.44-4.79,2.13c0.44-0.28-3.65,1.98-5.02,2.12c-0.06-0.14,0.51-0.36-0.08-0.17c5.35-2.54,7.02-3.48-0.12,0.03
		c0.06-0.11,0.87-0.49-0.58,0.22c-1.11,0.54-2.23,1.08-3.29,1.7c-2.34,1.19-4.68,2.41-6.97,3.69c-0.22,0.09-0.45,0.2-0.67,0.31
		c0.03-0.02,0.11-0.05,0.14-0.02c-0.11,0.06-0.22,0.12-0.33,0.19c-0.67-0.11-2.85,1.44-3.46,1.87c-0.19,0.17-0.36,0.36-0.55,0.53
		c-0.09,0.08-0.2,0.14-0.3,0.22c-0.78,0.46-1.56,0.91-2.34,1.36c0.81-0.54,1.67-1.04,2.49-1.56c1.28-1.08,2.84-2.09,4.24-2.98
		c7.05-3.97,13.8-7.33,21.22-10.53c14.72-6.12,27.58-10.03,43.22-13.02c-15.73,3.03-28.57,6.79-43.25,12.92
		c-19.68,8.72-27.52,12.06,0,0c15.03-6.25,28.18-10.11,44.22-13.09c0.81-0.14,21.85-2.74,16.28-2.41c0.08,0,0.17,0,0.25,0
		c-1.31,0.23-2.67,0.4-3.98,0.49c-20.96,2.57-37.13,7-56.79,15c-6.52,2.8-12.54,5.74-18.76,9.14c6.08-3.66,12.07-6.74,18.56-9.6
		c0.41-0.17,0.8-0.34,1.18-0.51c0,0-0.69,0.17-0.98,0.14c10.43-4.1,84.72-25.88,25.09-8.78l-25.09,8.78
		c-0.37-0.14,2.7-1.36,2.7-1.36c0.56-0.23,11.88-4.76,4.69-2.29c-2.71,0.97-5.3,2.03-7.94,3.2c-1,0.46-2,0.93-2.99,1.41
		c-2.06,0.87-4.15,1.81-6.24,2.6c3.04-1.47,6.07-2.84,9.17-4.16c29.21-10.96,82.89-30.95,17.39-6.49l-17.39,6.49
		c-3.15,1.33-6.21,2.74-9.28,4.22c-0.05,0.02-0.59,0.22-0.62,0.15c-0.08-0.29,0.5-0.37-0.12-0.26c-0.69,0.11,1.04-0.71-0.75,0.17
		c-1.39,0.66-2.95,1.41-4.13,2.37c-3.04,2.32-4.38,2.03-6.95,3.42c0.27,0.11,0.53,0.28,0.8,0.37c-0.08,0.05-0.14,0.09-0.22,0.12
		c-0.3-0.14-0.62-0.23-0.94-0.37c7.28-4.13,14.24-7.59,21.92-10.9c28.57-10.74,82.63-30.8,17.7-6.6l-17.7,6.6
		c-7.69,3.31-14.66,6.77-21.92,10.9c-0.51-0.12-2.49,1.41-3.02,1.75c-3.91,2.35-7.75,4.82-11.49,7.41
		c-2.67,1.75-5.29,3.57-7.87,5.43c-1.37,1.07-2.74,2.13-4.09,3.23c1.18-0.97,2.37-1.93,3.57-2.88c-2.15,1.59-4.29,3.23-6.38,4.92
		c-0.42,0.36-2.26,1.98-2.42,2.5c-0.9,0.9-1.89,1.73-2.84,2.58c0.7-0.79,1.56-1.52,2.35-2.2c0.03-0.03,0.06-0.06,0.09-0.08
		l-1.78,1.53c1.03-1.13,2.11-2.21,3.23-3.26c16.82-14.08,32.15-23.45,52.3-32.43c14.92-6.26,27.99-10.28,43.85-13.39
		c-15.86,3.03-28.97,7.05-43.89,13.26c-26.01,11.66-45.44,24.47-65.54,44.46c-0.05,0.05-0.27,0.28-0.34,0.36
		c1.2-1.1-4.8,6.08-6.16,7.78c-1.08,1.17-2.12,2.4-3.17,3.6c0.44-0.53,1.17-1.36,0.16-0.36c-0.09,0.09-0.17,0.19-0.25,0.28
		c0.06-0.11,0.14-0.2,0.22-0.29c0.02-0.28,0.11-0.54,0.23-0.77c0.08-0.05,0.14-0.11,0.22-0.15c0.31-0.43,0.62-0.87,0.95-1.3
		c-0.03,0.03-0.06,0.06-0.08,0.09c0.3-0.39,0.59-0.79,0.9-1.17c-2.07,2.35-4.07,4.76-6.02,7.2c0.11-0.11,0.22-0.23,0.33-0.36
		c-13.08,16.34-21.97,31.46-30.34,50.69c-8.61,21.26-15.76,39.41-1.09-0.46c6.13-15.27,12.72-27.36,22.02-41.03
		c-9.37,13.33-16.12,25.8-22.47,40.84c-2.23,5.55-4.52,11.63-6.16,17.39c0.11-0.31,0.2-0.62,0.31-0.93c0.33-1.1,0.67-2.18,1.03-3.26
		c-0.34,1.05-0.61,2.1-0.94,3.15c-0.05,0.08-0.08,0.15-0.11,0.23c-7.86,27.89-15.05,52.98-0.67,1.7
		c12.68-44.99-9.15,25.28-8.54,61.78c0.08,2.16,0.17,4.33,0.31,6.49c2.15,27.16,6.91,47.49,17.98,72.23
		c9.85,20.84,10.17,22.03-0.42,0.17c-12.27-26.79-17.34-49.42-18.71-78.89c-0.34-16.59,0.81-30.36,4.01-46.64
		c-0.28,0.83-0.42,1.69-0.61,2.54c0.06,0.02-0.16,1.35-0.19,1.48c0.03-0.37,0.27-1.39,0.02-0.37c0,0,0.08-0.57,0.12-0.87
		c-2.65,13.16-3.62,24.21-4.16,37.55c-0.02,2.1,0,4.21,0.06,6.31c0.75,18.94,2.53,34.72-0.03,3.85c-0.08-1.27-0.11-2.58-0.14-3.85
		c-0.2-10.05,0.27-19.4,1.42-29.37c-1.18,10.05-1.67,19.26-1.54,29.37c0.31,12.49,1.42,23.47,3.77,35.73
		c-0.08-0.23-0.11-0.48-0.19-0.73c0.03,0.42,0.06,0.83,0.09,1.25c0.16,1.79,0.39,2.55,0.64,4.17c0.14,0.88-0.39-1.17-0.39-1.19
		c0,0.14,0.03,0.26,0.02,0.39c-1.96-9.17-3.32-18.46-4.04-27.81c-0.27-3.96-0.41-7.85-0.45-11.81c0.11-28.57,4.1-50.65,14.21-77.39
		c-7.22,18.3-11.57,36.95-13.46,56.52c-0.06,0.51-0.11,1-0.16,1.52c-0.51,6.14-0.75,12.29-0.72,18.44
		c-0.14-8.1,0.22-16.22,1.04-24.29c2.48-20.55,6.5-36.7,14.19-55.89c3.07-7.36,6.28-14.1,10.1-21.1
		c-3.73,6.01-7.5,14.58-10.23,21.06c-6.85,17.27-11.07,32.7-13.53,51.03c0.84-6.46,1.95-12.91,3.38-19.28
		c2.64-11.15,5.85-21.12,10.15-31.75c4.32-10.33,7.53-17.84-0.08-0.03c-1.48,3.57-2.84,7.13-4.12,10.78
		c3.82-11.35,3.18-9.49-0.37,0.91c-8.09,24.13-11.24,44.01-11.35,69.48c0.11,7.82,0.56,15.15,1.47,22.93
		c-0.98-7.78-1.53-15.1-1.72-22.93c0.05-30.42,3.88-53.47,14.95-81.64c7.03-16.84,10.63-25.49-0.03-0.02
		c-11.07,28.15-14.97,51.26-15.03,81.66c0.28,11.55,1.29,21.8,3.29,33.19c0.16,0.74,0.28,1.48,0.41,2.23
		c-2.17-11.12-3.41-22.4-3.73-33.73c0.41,16.54,2.79,33.01,7.13,48.98c1.26,4.68,2.98,11.12,4.79,15.61
		c-0.08,0.02,0.19,0.66,0.2,0.71c0.64,1.82,1.45,3.68,2.26,5.44c1.08,2.74,2.21,5.4,3.4,8.09c3.12,6.93,6.38,13.28,10.18,19.85
		c0.81,1.61,1.53,2.78,2.49,4.36c-0.17-0.39-0.37-0.76-0.55-1.14c0.22,0.46,0.45,0.91,0.67,1.36c0.76,1.24,3.12,4.84,2.93,4.36
		c0.94,1.44,1.89,2.84,2.85,4.25c-0.33-0.62-0.69-1.24-1.04-1.86c0.55,0.83,0.98,1.64,1.5,2.46c1.68,2.43,3.41,4.81,5.21,7.16
		c-1.9-2.18,1.42,1.89,1.67,2.18c6.07,7.42,11.76,14.11,18.48,20.96c0.36,0.36,0.72,0.7,1.06,1.04c38.02,34.69,50.89,46.8,8.06,7.42
		l-8.06-7.41c-0.33-0.32-0.64-0.65-0.97-0.96c0.33,0.31,0.65,0.63,0.98,0.94c16.54,15.54,69.39,45.51,38.64,31.04
		c-15.12-9.65-26.51-17.65-39.79-29.9c-0.83-0.77-8.73-8.6-7-6.99c-0.69-0.68-0.47-0.36-0.09,0.08c2.28,2.46,4.57,4.73,6.88,7.13
		c0.61,0.63,1.22,1.27,1.82,1.89c13.92,12.65,28.85,24.13,45.39,33.21c-18.57-10.27-32.29-20.24-47.5-34.83
		c-2.48-2.43-5.04-5.26-7.53-7.58c0.41,0.45,0.8,0.87,1.2,1.3c-0.65-0.56-1.18-1.31-1.81-1.92c-1.9-1.38,6.95,7.68,7.8,8.53
		c5.96,5.89,11.84,11.05,18.42,16.26c-0.81-0.62,19.52,14.16,30.59,20.05c5.93,3.12,11.65,5.87,17.79,8.52
		c2.43,1.05,2.25,1.02-0.05,0.11c-15.22-6.31-89.66-58.82-40.84-22.66c-9.7-6.88-17.84-13.57-26.38-21.8
		c-25.96-26.58-38.95-39.31-0.19,0.19c21.11,20.21,40.39,32.79,67.38,44.37c28.32,11.1,51.63,15.65,82.02,15.74
		c8.36-0.11,16.17-0.62,24.45-1.64c20.6-2.63,37.75-7.61,56.94-15.58c13.86-6.42,86.62-56.52,35.08-17.99
		c5.99-4.05,11.93-8.39,17.42-13.08c5.01-4.22,9.61-8.44,14.24-13.08c3.23-3.26,6.27-6.54,9.29-10c-1.98,2.49-4.01,4.93-6.1,7.34
		c4.1-4.41,7.84-9.31,11.65-13.98c-2.79,3.66-5.69,7.24-8.69,10.71c-0.94,1.04-1.87,2.04-2.81,3.06c0.5-0.57,1.03-1.1,1.56-1.64
		c-1.47,1.67-2.95,3.31-4.48,4.95c-0.36,0.4-0.73,0.79-1.11,1.19c0.37-0.39,0.75-0.79,1.12-1.19c5.85-6.32,10.37-11.72,15.62-18.66
		c2.64-3.35,5.18-6.79,7.59-10.28c3.37-5.24,6-10.4,8.97-15.83c0.25-0.39,0.51-0.77,0.73-1.16c-2.48,4.98-5.18,9.85-8.08,14.59
		c4.65-6.93,8.87-14.13,12.65-21.57c-10.15,20.95-20.89,36.45-36.71,53.68c-0.84,0.9-1.68,1.78-2.54,2.66
		c-0.94,0.97-1.86,1.95-2.81,2.92c1.84-1.81,3.63-3.65,5.4-5.52c19.52-21.29,31.53-40.1,42.38-66.8c-0.25,0.59-0.5,1.16-0.76,1.75
		c0.09-0.23,0.19-0.48,0.28-0.71c0.55-1.16,0.69-1.48,0.08-0.25c-1.73,3.57,0.08-1.13,0.34-1.82c2-5.53,4.6-12.62,5.89-18.3
		c-0.5,1.52-1.01,3.01-1.56,4.5c0.48-1.64,1.18-3.35,1.62-4.87c0.02-0.08,0.05-0.15,0.06-0.23c-0.31,0.74-0.58,1.53-0.86,2.29
		c1.25-4.61,2.42-9.23,3.35-13.91c0.69-2.46,1.34-4.92,1.92-7.39c-0.59,4.3-1.39,8.5-2.35,12.72c1.08-2.81,2.12-5.64,3.06-8.52
		c-0.05,0.37-0.14,0.74-0.19,1.1c-0.97,2.86-2.01,5.69-3.1,8.5c-2.04,8.5-4.32,16.09-7.3,24.35c-0.39,1.08-0.81,2.16-1.22,3.25
		c0.45-1.07,0.92-2.12,1.36-3.18c4.13-10.11,6.63-17.9,9.37-28.54c-4.9,21.84-5.71,26.37,0.22-0.83c0.39-1.65,0.76-3.29,1.15-4.95
		c-0.14,0.39-0.27,0.79-0.41,1.17c0.22-1.14,0.41-1.59,0.7-2.64c0.11-0.51,0.84-3.82,0.17-2.5c1.09-6.74,1.82-13.56,2.23-20.38
		c0.51-7.44,0.65-14.47,0.44-21.92c-1.84-30.49-6.47-51.11-18.23-78.78c-9.89-21.94-20.43-37.49-36.67-55.56
		c2.09,2.21,4.15,4.45,6.14,6.76c0.45,0.51,0.9,1.04,1.36,1.56c-0.76-0.9-1.53-1.79-2.29-2.69c-4.19-4.81-8.39-9.23-12.99-13.67
		c-4.8-4.58-9.56-8.72-14.75-12.86c5.24,4.08,10.06,8.18,14.92,12.69c5.11,4.84,9.75,9.63,14.38,14.92
		c0.22,0.25,0.44,0.49,0.64,0.74c-1.15-1.38-2.32-2.72-3.51-4.07c-3.68-4.11-7.36-7.93-11.34-11.76c-1.53-1.47-3.07-2.89-4.65-4.31
		c0.2,0.2,0.62,0.59,0.62,0.59c-0.44-0.48-0.34-0.37,0,0c1.36,1.22,2.68,2.47,4.01,3.74c3.65,3.49,7.06,7.02,10.45,10.76
		c-3.43-3.71-6.88-7.19-10.54-10.67c-7.02-6.51-13.78-12.04-21.58-17.64c-10.79-7.62-22.14-14.49-34.23-19.94
		c-3.17-1.41-6.32-2.72-9.56-3.97c-0.76-0.28-24.79-7.59-19.35-6.17c4.37,1.64,9.28,2.88,13.88,4.61c1.73,0.68,3.46,1.36,5.16,2.09
		c0.02,0,0.06,0.02,0.08,0.02c25.74,10.67,44.35,22.88,64.77,41.83c5.29,5.38,67.22,82.25,20.35,22.66l-20.38-22.63
		c-20.44-19.15-38.81-30.8-64.8-41.71c-0.33-0.12-0.64-0.25-0.95-0.37c-6.16-2.32-11.83-4-18.01-5.98c0.03,0.02,0.06,0.03,0.11,0.06
		c-0.75-0.17-1.48-0.36-2.21-0.51c0.61,0.14,1.23,0.29,1.86,0.46c0.05,0.06,9.56,3.23,10.67,3.63c2.81,1.02,5.57,2.07,8.33,3.2
		c23.23,9.86,13.64,5.75-0.06,0.15c-3.18-1.25-6.35-2.41-9.59-3.51c3.23,1.13,6.38,2.3,9.56,3.59
		c24.04,10.1,41.51,21.21,60.86,38.59c1.15,1.07,2.28,2.15,3.4,3.23c6.3,6.2,11.76,12.23,17.26,19.12c-0.5-0.62-1.01-1.24-1.53-1.86
		c-5.08-6.14-10.1-11.61-15.81-17.18c-20.33-19.09-38.45-30.9-64.24-41.77c-0.17-0.06-0.33-0.14-0.5-0.2
		c-1.34-0.62-19.4-6.21-11.26-4.24c-4.48-1.47-9-2.8-13.57-3.97c-0.45-0.17,1.51,0.28,2,0.39c-0.36-0.14-0.89-0.31-1.22-0.49
		c0.42,0.08,0.86,0.17,1.28,0.26c-0.36-0.15-0.87-0.39-1.19-0.6c-9.29-1.52-5.54-0.9,0.14,0.8c-0.48-0.12-3.4-0.88-1.15-0.28
		c-0.53-0.14-3.73-0.93-1.28-0.28c-0.39-0.11-0.78-0.2-1.15-0.29c6.78,1.89,14.94,4.55,21.42,6.82c2.14,0.76,4.24,1.56,6.35,2.4
		c2.99,1.19,5.93,2.44,8.87,3.77c-1.65-0.74,2.48,1.24,1.43,0.93c-3.49-1.52-6.81-3.09-10.38-4.55c-1.67-0.68-3.38-1.38-5.1-1.98
		c-3.21-1.17-0.02,0.15,1.04,0.54c-1.25-0.59,3.74,1.36,4.04,1.48c4.9,1.99,9.56,4.11,14.27,6.48c-0.9-0.43-1.81-0.88-2.71-1.31
		c-0.17-0.06,26.73,12.6,52.36,36.64c4.21,4.1,8.08,8.19,11.93,12.63c-1.26-1.24-2.56-2.43-3.76-3.73c0.16,0.17,0.17,0.15-0.02,0.02
		c0.05,0.06,0.11,0.12,0.16,0.19c-1.65-1.62-3.32-3.23-5.04-4.79c-1.29-1.24-2.6-2.46-3.91-3.68c-5.52-5.06-11.87-10.57-17.98-14.92
		c-15-11.18-22.69-14.87-38.84-22.62c-2.37-1.13-4.74-2.21-7.16-3.25c-1.81-0.77-3.62-1.53-5.46-2.24c-0.58-0.2-1.17-0.4-1.76-0.6
		c-15.76-6.04-102.52-19.82-42.97-10.71l37.98,9.07c-2.87-0.88-5.77-1.7-8.69-2.44c-57.37-15.8-48.09-12.35-0.69-0.17
		c-10.6-2.71-21.42-4.51-32.34-5.44c-1.42-0.14-2.85-0.28-4.29-0.39c5.13-0.14-1.79-0.25-2.65-0.23c0,0,0.65,0.06,0.97,0.11
		c-2.09-0.15-4.18-0.28-6.27-0.34c1.73,0.08,3.45,0.17,5.18,0.29c0.97,0.06,1.92,0.15,2.88,0.25c4.01,0.37,8,0.87,11.98,1.5
		c1.39,0.14,2.84,0.36,4.24,0.56c15.16,3.17,26.04,5.92,39.78,12.32c-13.29-5.61-27.16-9.74-41.35-12.29
		c0.02-0.08,0.56-0.05,0.61-0.05c-0.67-0.12-1.33-0.23-2-0.34c0.11,0.08-0.47,0.02-0.25,0.11c-4.55-0.77-9.14-1.39-13.72-1.86
		c-0.05-0.02-0.08-0.02-0.12-0.03c-1.12-0.09-2.25-0.15-3.37-0.22c0.69,0.05,1.37,0.11,2.04,0.15c-0.36,0-0.72-0.02-1.08-0.03
		c0.44,0.02,0.87,0.03,1.33,0.05c5.07,0.48,10.12,1.16,15.14,2.03c0.09,0.05,0.14,0.09,0.22,0.14c0.51,0.06,1.01,0.14,1.53,0.22
		c-0.08-0.03-0.16-0.06-0.22-0.09c14.42,2.6,28.5,6.8,41.98,12.55c0.08,0.05,0.41,0.22,0.47,0.23c1.37,0.65,2.74,1.31,4.12,1.98
		c0,0-1.47-0.6-2.2-0.9c4.12,2.66,11.45,6,16.22,8.73c0.09,0.06,0.2,0.14,0.3,0.2c-16.2-8.97,2.14,1.24,6.33,3.8
		c-0.72-0.48-1.47-0.9-2.2-1.34c0.81,0.46,1.62,0.94,2.42,1.44c1.34,0.8,2.65,1.65,3.96,2.49l-0.02,0.03
		c-0.05-0.03-1.84-1.22-0.92-0.51c-1.01-0.68-2.03-1.33-3.04-1.99c-0.03-0.02-0.25-0.11-0.11-0.03c-0.2-0.12-0.42-0.22-0.62-0.34
		c0.08,0.06-0.41-0.23-0.31-0.15c-0.62-0.37-1.17-0.74-1.84-1.04c-0.03-0.02-0.08-0.03-0.11-0.03c0.03,0.02,0.05,0.05,0.08,0.08
		c0.92,0.63,1.93,1.22,2.88,1.78c-0.08-0.08-0.17-0.15-0.27-0.23c0.09,0.06,0.2,0.12,0.3,0.19c-0.19-0.14-0.36-0.29-0.55-0.43
		c0.92,0.63,1.43,1.02,2.45,1.59c-0.03-0.03-0.06-0.05-0.09-0.08c0.05,0.02,0.08,0.03,0.11,0.06c-0.22-0.17-0.44-0.34-0.65-0.51
		c5.11,3.32,10.09,6.88,14.84,10.71c-13.49-10.2-26.09-17.27-41.65-24.12c-21.94-8.49-133.12-29.09-31.28-9.29
		c-64.23-13.17,0.55,0.02,20.43,6.51c3.17,1.41,6.17,1.79,10.38,3.88c0.78,0.4,1.54,0.82,2.29,1.28c0.11,0.08,0.2,0.14,0.3,0.22
		c0.45,0.22,0.92,0.43,1.37,0.65c-0.14-0.06-0.28-0.14-0.42-0.2c0.11,0.05,0.2,0.11,0.31,0.15c-0.14-0.05-0.28-0.12-0.44-0.17
		c-0.16-0.12-0.47-0.19-0.62-0.31c-0.98-0.43-1.96-0.87-2.95-1.28c-5.46-2.3-10.79-4.3-16.43-6.14l0.95,0.4
		c5.3,1.75,10.32,3.63,15.47,5.8c1.01,0.43,2.03,0.87,3.04,1.33c-0.36-0.17-0.73-0.29-1.09-0.45c9.14,6.68,18.2,9.15-2.32-0.03
		c-1.36-0.59-2.73-1.16-4.1-1.72c-0.19-0.05-0.37-0.11-0.55-0.19c1.33,0.56,2.64,1.11,3.93,1.69c-1.42-0.59-3.04-1.3-4.51-1.75
		c1.73,0.7,3.45,1.39,5.16,2.12c24.32,10.84,41.29,22.46,60.09,41.18c18.15,19.15,29.33,36.19,39.48,60.45
		c9.73,25.32,13.46,45.76,13.46,72.83c-0.81,27.21-4.96,47.06-14.39,72.43c-1.12,2.92-2.29,5.81-3.51,8.69
		c-1.33,3.2-3.06,6.42-4.94,9.32c-0.34,0.73-0.64,1.45-1,2.16c0.17-0.29,4.24-7.41,2.39-3.62c-0.23,0.4-0.47,0.79-0.69,1.19
		c0.06-0.14,0.12-0.28,0.19-0.42c0.86-1.52,0.58-1.28,0,0c-1.18,2.47-2.46,4.87-3.7,7.3c-0.87,1.33-1.78,2.64-2.7,3.94
		c1.42-2.46,2.78-4.95,4.09-7.47c-0.05,0.05-0.14,0.19-0.14,0.19c0.14-0.28,0.27-0.54,0.39-0.82c-0.73,1.19-1.67,2.54-2.31,3.76
		c-0.41,0.82-0.81,1.64-1.2,2.46c-0.78,1.28-1.56,2.58-2.31,3.9c0.62-0.88,2.78-3.9,0.7-0.9c-2.49,3.4-5.11,6.72-7.83,9.97
		c1.7-2.26,3.35-4.53,4.96-6.85c-0.33,0.49-0.98,1.52-0.98,1.52c1.17-1.45,1.22-1.48-0.11,0.2c-0.25,0.37-0.48,0.76-0.73,1.13
		c0.58-0.79,1.15-1.58,1.72-2.38c0.06-0.08,1.61-2.6,0.75-1.41c0.56-0.88,1.15-1.76,1.73-2.64c-0.12,0.2-0.23,0.39-0.34,0.59
		c0.89-1.22,0.81-1.11-0.12,0.19c-0.17,0.29-0.34,0.59-0.51,0.88c0.72-1.07,1.37-2.01,1.96-3.17c-3.85,5.75-8,11.29-12.37,16.65
		c-4.58,5.07-9.12,9.65-14.19,14.24c-7.52,6.68-14.64,12.17-23.05,17.7c6.7-3.83,12.79-8.24,18.82-13.03
		c0.02,0.08,0.03,0.14,0.05,0.22c0.39-0.12,4.29-3.77,4.8-4.27c0.3-0.28,3.27-3.2,2.26-2.03c0.67-0.71,1.34-1.42,2.01-2.13
		c1.08-1.14,2.15-2.3,3.2-3.48c-0.97,1.25-1.95,2.47-2.96,3.69c-1.45,1.36-2.85,2.78-4.29,4.16c-1.03,0.99-2.07,1.98-3.17,2.89
		c-17.9,16.33-34.58,26.59-57.01,36.18c-17.09,6.66-31.58,10.45-49.71,12.62c9.25,2.03,40.93-8.02,50.13-11.61
		c8.22-3.42,15.59-7.02,23.25-11.5c-7.7,4.5-14.97,8.13-23.2,11.61c-22.53,9.06-40.92,13.06-65.21,14.35
		c0.42,0.14-0.55,0.23-0.58,0.23c-2.15-0.12-5.22,0.02-7.52-0.03c-24.23-0.83-45.14-4.9-67.58-14.05
		c22.42,9.2,43.35,13.28,67.58,14.13c2.71,0.06,5.4,0.08,8.11,0.03c-1.87,0.09-3.77,0.28-5.63,0.36c-0.03-0.06-0.08-0.12-0.11-0.17
		c-0.8,0.03-1.57,0.06-2.37,0.09c-5.49,0.12-10.1-0.12-15.55-0.62c0.27,0.05,7.73,0.97,4.72,0.88c-0.23,0-0.47-0.02-0.7-0.03
		c0.58,0.12,1.15,0.25,1.73,0.36c1.43,0.03,2.93,0.02,4.35,0.09c2.12,0.09-1.86,0.2-1.89,0.2c2.45,0.09,4.88,0.15,7.33,0.15
		c3.32-0.02,6.61-0.09,9.92-0.25c1.37-0.05,2.74-0.08,4.1-0.12c-0.19,0.03-0.37,0.06-0.58,0.09c-0.23,0.02-0.47,0.02-0.7,0.03
		c-0.89,0.05-1.79,0.08-2.7,0.12c-0.9,0.06-1.79,0.15-2.7,0.23c-2.45,0.08-4.88,0.11-7.34,0.09c-0.39,0-0.8,0-1.19-0.02
		c-0.67-0.05-1.34-0.09-2.01-0.14c-1.81,0.02-2.96,0.2-4.85-0.08l0.12-0.09c-1.59-0.08-2.76-0.2-4.32-0.4
		c0.37,0.08,0,0.05-0.12,0.03c-0.5-0.03-1.03,0-1.53-0.02c-1.9-0.14-3.79-0.34-5.68-0.53c-1.68-0.17-3.41-0.25-5.07-0.62
		c3.49,0.46,7,0.83,10.51,1.1c-1.22-0.26-2.45-0.51-3.66-0.79c-0.36-0.02-1.04-0.03-1.04-0.03c-1.26-0.15-2.53-0.31-3.79-0.48
		c0.58,0.05,1.15,0.08,1.73,0.11c3.01,0.49,2.65,0.42,0.23,0c0,0,1,0.06,1.5,0.09c-7.77-1.78-11.15-2.12-18.99-3.14
		c1.17,0.26,2.39,0.49,3.54,0.83c0.17,0.14-9.73-0.51,5.4,1.02c-0.31,0-0.62,0-0.92-0.02c-1.79-0.25-1.53-0.2-0.12,0.02
		c1.98,0.26,3.96,0.49,5.94,0.7c-1.23-0.05-2.46-0.11-3.7-0.17c-1.17-0.2-2.67-0.23-3.9-0.37c-15.27-2.72-27.46-6.34-41.73-12.37
		c-16.19-7.2-28.39-14.62-42.27-25.59c13.91,10.95,26.12,18.51,42.19,25.77c26.01,10.87,38.9,16.51-0.05,0.12
		c-22.27-10.08-38.16-20.96-55.88-37.8c-1.14-1.14-2.28-2.27-3.41-3.43c-7.25-7.58-23.59-28.75-23.37-28.29
		c7.06,10.68,14.14,19.34,23.06,28.6c18.6,18.4,35.69,30.21,59.58,40.98c0.64,0.26,24.45,8.83,19.02,7.33
		c-0.25-0.06-5.05-1.11-2.62-0.71c-0.95-0.26-1.89-0.56-2.82-0.83c1.11,0.56-2.18-0.49-2.64-0.65c3.51,1.25,7.06,2.4,10.65,3.45
		c1.82,0.4,3.23,0.54,5.15,1.05c-0.27-0.05-0.53-0.09-0.8-0.14c0.65,0.19,1.33,0.36,1.98,0.53c-0.37-0.17,1.28,0.28,1.78,0.4
		c5.96,1.48-9.54-2.21-10.62-2.54c0.69,0.22,1.37,0.43,2.06,0.65c-6.46-1.44-15.37-5.06-21.49-7.73c-0.86-0.39-1.73-0.77-2.59-1.16
		c0.86,0.39,1.73,0.77,2.59,1.14c12.16,5.1,7.55,3.14,0.05-0.09c-17.85-7.96-32.92-17.11-47.76-29.78
		c13.33,11.41,28.22,20.93,44.19,28.28c-4.07-1.84-8.08-3.82-12.01-5.94c5.13,2.8,10.14,5.27,15.5,7.62
		c1.56,0.68,3.13,1.34,4.71,1.99c0.39,0.15,0.76,0.31,1.15,0.46c-0.05-0.02,1.84,0.68,3.17,1.17c-0.58-0.2-0.53-0.19-0.02,0.03
		c-3.06-1.13-6.07-2.27-9.08-3.51c-3.1-1.3-6.13-2.63-9.15-4.08c-6.92-3.51-13.64-7.42-20.08-11.73c29.41,18.89,8.92,6.65-5.43-3.05
		c-2.48-1.72-4.91-3.51-7.31-5.35c0.55,0.43,1.09,0.85,1.64,1.27c-7.31-5.46-13.91-11.08-20.35-17.55
		c-0.17-0.11-1.92-1.96-2.11-2.26c-1.51-2.54-3.54-4.44-5.49-6.72c-3.48-4.11-6.8-8.22-10.03-12.52c-2.31-2.64-4.55-5.36-6.7-8.13
		c0.45,0.65,0.92,1.31,1.39,1.96c3.68,5.78,5.46,8.52,1.17,1.69c-0.25-0.34-0.48-0.68-0.73-1.02c0.09,0.12,0.2,0.23,0.31,0.36
		c0,0,0.08,0.12,0.12,0.19c0.39,0.49,0.83,1.02,1.17,1.55c0.03,0.05,0.08,0.09,0.05,0.11c2.4,3.26,4.94,6.38,7.38,9.6
		c2.12,2.95-5.94-7-6-7.07c-2.03-2.83-3.98-5.7-5.83-8.63c-1.56-2.18-3.01-3.94-4.49-6.28c0.44,0.71,0.9,1.42,1.36,2.13
		c0.25,0.43,0.5,0.87,0.73,1.3c-0.19-0.32-0.55-1-0.55-1c0.03,0.05,3.52,5.09,2.28,3.59c-0.2-0.28-0.41-0.56-0.61-0.83
		c0.27,0.42,0.53,0.83,0.81,1.25c-0.5-0.68-0.97-1.38-1.45-2.07c6.07,9.32,12.8,18.23,20.32,26.44
		c-2.84-3.09-24.57-32.85-17.12-21.52c-3.6-3.49,15.95,21.23,23.31,28.62c2.98,2.86,33.04,26.47,18.62,17.38
		c35.96,27.02-12.29-9.71-19.43-16.57c-18.63-19.14-30.3-36.55-40.96-60.99c-9.42-23.81-13.75-42.98-14.66-68.36
		c-3.91,9.11,9.93,58.08,14.02,68.63c2.4,5.8,4.93,11.19,7.84,16.74c-2.95-5.52-5.52-10.91-7.97-16.68
		c-7.64-18.91-11.65-34.6-14.02-54.73c-0.05-0.51,0.05,0.42,0.05,0.46c-0.69-6.88-0.97-13.43-0.98-20.36
		c0.51-27.46,4.93-49.04,15.53-74.39c2.06-4.73,4.18-8.92,6.41-13.5c-2.14,3.34-4.99,9.77-6.61,13.42
		c-10.79,25.29-15.28,47-15.9,74.47c-0.02,7.36,0.28,14.28,1,21.6c-0.44-2.92-0.76-5.86-0.97-8.81c-0.23-4.22-0.19-8.3-0.39-12.43
		c-0.12,1.05-0.05,3.48-0.03,4.56c-0.05-1.64-0.08-3.28-0.08-4.92c-0.02-1.89,0-3.77,0.05-5.66c0,1.13,0,2.24,0.02,3.37
		c0.05-1.62,0-2.64-0.02-4.2c0.06-2.15,0.14-4.3,0.28-6.43c0.03,1.39,0.09,2.78,0.11,4.17c0.19-2.37,0.34-4.73,0.56-7.1
		c-0.06-0.09-0.11-0.37-0.11-0.37c0.31-1.33,0.33-2.07,0.47-3.4c0-0.03-0.03-0.23,0.05-0.23c0.06-0.62,0.12-1.24,0.2-1.87
		c0.22-0.42,0.3-2.2,0.33-2.67c0.08-0.39,0.12-0.77,0.17-1.16c0.02-0.15,0.27-4.33,0.3-2.09c0.55-3.69,1.12-7.45,1.81-11.13
		c1.61-7.93,3.71-15.75,6.32-23.41c-0.02,0.03-0.02,0.08-0.03,0.11c0.33-0.93,0.65-1.87,0.98-2.8c0.8-2.49,1.68-4.96,2.62-7.41
		c0.37-0.9,0.76-1.78,1.15-2.67c0.08-0.19,0.17-0.39,0.25-0.57c6.14-15.82,4.66-12.48-0.8,0.34c-2.67,6.43-4.91,12.69-7.02,19.31
		c0.05-0.14,0.08-0.29,0.11-0.45c-0.34,1.14-0.67,2.29-0.98,3.43c-0.61,2.07-1.2,4.14-1.73,6.23c0.02-0.15,0.05-0.31,0.08-0.45
		c-0.23,0.85-0.47,1.72-0.69,2.57c0.11-0.29,0.22-0.59,0.33-0.87c-0.55,2.49-1.96,6.08-1.89,8.5c2.48-11.87,6.1-23.48,10.81-34.66
		c-5.11,12.37-8.34,23.84-11.01,36.99c-0.83,4.27-1.51,8.55-2.01,12.88c-0.08,0.45-0.22,0.8-0.23,1.27
		c0.05-0.19,0.09-0.37,0.12-0.57c-0.34,3.15-0.7,6.29-0.92,9.46c0-0.05-0.02,0.36-0.05,0.23c0.02-0.12,0.02-0.36,0.02-0.36
		s-0.03,0.23-0.05,0.36c0.02-0.28,0.03-0.56,0.05-0.83c-0.02,0.28-0.05,0.56-0.08,0.83c-0.05,0.34-0.05,0.85-0.06,1.19
		c0.06-0.36,0.12-0.71,0.17-1.07c-0.16,2.72-0.28,5.43-0.34,8.15c0-2.24,0.08-4.48,0.19-6.73c-0.05,0.25-0.09,0.48-0.12,0.73
		c0.16-2.71,0.33-5.41,0.61-8.1c0.09-0.94,0.19-1.89,0.3-2.83c0.17-4.59,1.72-12.38,2.62-16.94c-0.56,2.6-1.04,5.21-1.48,7.82
		c-0.55,3.37-0.84,6.83-1.4,10.17c0.12-1.02,0.23-2.04,0.36-3.06c0,0.08,0,0.15,0,0.23c0.06-0.46,0.11-0.93,0.17-1.41
		c-0.05,0.31-0.09,0.63-0.14,0.94c0.02-0.4,0.03-0.79,0.05-1.19c0-0.06,0-0.25-0.05-0.12c2.68-19,6.77-34,14.27-51.67
		c0.12-0.26,0.23-0.53,0.36-0.8c-0.12,0.28-0.25,0.54-0.36,0.8c-6.33,14.78-10.18,27.47-13.14,43.26c0-0.08,0.02-0.15,0.02-0.23
		c-0.02,0.15-0.03,0.31-0.05,0.46c0-0.03,0.02-0.08,0.02-0.11l-0.02,0.11l0.02-0.11c-1.31,7.82-2.31,15.52-2.78,23.45
		c0.06-2.2-0.05,0.59-0.08,1.08c0.03,0,0.05-0.23,0.08-0.23c-0.05,0.63-0.09,1.28-0.12,1.92c0.16-5.46,0.56-10.9,1.19-16.34
		c0,0.2,0,0.4-0.02,0.6c1.53-15.72,5.77-32.17,11.4-46.94c0.95-2.41,1.92-4.78,2.96-7.14c2.73-6.17,5.58-11.87,8.89-17.75
		c-0.33,0.53-0.65,1.07-0.98,1.61c-2.98,5.27-5.55,10.54-8.01,16.09c-0.87,1.98-1.68,3.96-2.49,5.98c0.8-2.03,1.61-4,2.46-6
		c2.09-4.73,4.19-9.11,6.61-13.65c-2.29,3.85-4.82,9.55-6.63,13.65c-4.9,11.44-8.25,21.78-11.09,33.92
		c-0.51,1.75-0.97,3.56-1.4,5.33c2.7-14.02,6.69-26.19,12.29-39.34c7.2-15.57,42.43-64.74,19.83-36.47
		c0.94-1.27,1.89-2.52,2.82-3.77c2.46-2.97,12.08-13.99,3.04-3.9c-1.78,2.01-3.51,4.03-5.19,6.12c1.61-2.15,3.23-4.27,4.88-6.37
		c0.5-0.73-1.15,1.27-1.42,1.59c1.78-2.24,3.6-4.45,5.49-6.62c-0.37,0.45-0.75,0.91-1.11,1.38c0.02-0.03,0.05-0.06,0.08-0.09
		c-0.78,0.97-1.56,1.98-2.31,2.97c0.02-0.03,0.05-0.06,0.06-0.09c-0.25,0.36-0.5,0.7-0.78,1.04c5.36-6.25,10.63-11.78,16.65-17.38
		c14.39-12.79,22.08-18.3,3.43-3.71c-0.08-0.08,1.11-1.24,1.18-1.31c-1.82,1.41-3.59,2.81-5.36,4.28c-1.82,1.52-3.6,3.06-5.38,4.64
		c1.67-1.69,3.35-3.32,5.05-4.96c2.01-1.9,4.02-3.76,6.1-5.6c0.56-0.36,1.65-1.16,1.65-1.16c-0.75,0.7-1.5,1.39-2.25,2.09
		c1.2-0.9,2.42-1.78,3.63-2.64c15.86-14.18,34.68-24.72,54.25-32.91c12.9-5.01,23.34-7.93,36.72-10.79
		c-13.05,2.3-24.51,5.64-36.92,10.31c-13.55,5.46-24.04,10.84-36.25,18.61c-0.48,0.17,13.36-8.77,19.37-12.03
		c5.46-2.81,10.77-5.27,16.45-7.61c12.82-5.07,23.61-8.24,37-11.08c-12.57,2.41-23.22,5.52-35.22,10.05
		c16.29-7.1,33.51-11.95,51.13-14.44c8.03-1.02,15.67-1.64,23.75-1.75c-13.53,0.11-25.54,1.47-38.87,3.97
		C977.35,622.25,982.39,621.39,987.46,620.72L987.46,620.72z"/>
	<path class="st1" d="M1189.71,855.56c4.41-0.59,8.84-1.17,13.25-1.76c-21.63,2.64-45.47,5.81-67.05,6.86
		c0.11-0.02,0.22-0.05,0.33-0.08c0.05,0,0.09-0.02,0.14-0.02c-0.47-0.05-0.94-0.11-1.4-0.15c0.22,0.02-0.45,0.23-0.31,0.26
		c0.05-0.02,0.09-0.02,0.14-0.02c0.31,0,0.64,0.02,0.97,0.02c-1.78,0.25-6.66,0.99-1.57,0.14c-0.05-0.02-0.09-0.03-0.14-0.03
		c0.05-0.02,0.09-0.02,0.14-0.02c0.12-0.03,0.27-0.06,0.41-0.09c-0.33,0-0.65-0.02-0.98-0.03c0.28-0.05,0.55-0.09,0.81-0.14
		c-5.77-0.63,2.56-1.39,4.18-1.76c-0.27,0.22-0.27,0.32-0.42,0.59c-0.48,0.62,9.31-2.44,10.49-2.81c-3.2,0.74-6.41,1.42-9.61,2.13
		c2.1-0.68,4.33-1.7,6.36-2.6c1.54-0.2,3.09-0.42,4.63-0.63c-1.36,0.14-2.73,0.25-4.1,0.4c1.96-0.87,1.92-0.73,4.04-1.04
		c-0.75,0.09-1.51,0.17-2.26,0.25c0.08-0.06,0.23-0.12,0.33-0.17c3.24-0.53,6.49-1.02,9.75-1.47c-1.75-0.2,0.89-0.51,1.11-0.53
		c0.42-0.06,7.24-1.1,2.9-0.73c-2.68,0.23-5.19,0.77-7.72,0.97c0.27-0.14-2.7,0.29-3.04,0.03c-0.03-0.23,0.33-0.17-0.03-0.28
		c3.26-0.31,4.35-0.65-0.08-0.03c0-0.09,0.59-0.15-0.34-0.05c-0.69,0.08-1.39,0.14-2.04,0.31c-1.47,0.15-2.93,0.28-4.38,0.43
		c-0.14-0.02-0.28-0.03-0.42-0.05c0.05,0.03,0.06,0.03,0.08,0.09c-0.08,0-0.14,0.02-0.2,0.02c-0.36-0.57-1.73-0.09-2.21,0.06
		c-0.12,0.11-0.25,0.22-0.39,0.31c-0.06,0.03-0.12,0.05-0.19,0.08c-0.53,0.05-1,0.06-1.53,0.08c0.55-0.11,1.11-0.12,1.64-0.23
		c0.78-0.45,1.93-0.76,2.81-0.97c12.82-1.59,25.63-3.23,38.45-4.87c-52.22,6.34-37.78,4.59,0.55-0.06c0.55-0.06,11.9-1.45,9-1.39
		c0.05,0.02,0.09,0.02,0.14,0.03c-0.7,0.23-1.45,0.37-2.18,0.37c-14.61,2.09-29.72,3.71-44.41,5.52c3.99-0.93,8.09-1.67,12.15-2.29
		c0,0-0.45-0.15-0.59-0.29c32.89-4.13,39.71-4.96,0,0c-0.19-0.37,1.54-0.53,1.68-0.54c0.5-0.06,7.24-1.22,2.85-0.99
		c-2.21,0.19-4.43,0.49-6.6,0.99c-1.15,0.09-2.62,0.19-3.74,0.06c50.75-6.32,39.48-4.93-0.06,0c-0.06,0-0.36-0.06-0.36-0.14
		c-0.05-0.43,0.31-0.22-0.06-0.45c-0.44-0.22,0.72-0.34-0.44-0.22c-0.86,0.09-1.82,0.17-2.56,0.68c-2.04,1.28-3.12-0.05-4.29,0.03
		c0.14,0.34,0.25,0.7,0.39,1.04c-0.05,0-0.09,0.02-0.14,0.02c-0.14-0.37-0.31-0.74-0.47-1.13c61.86-7.71,47.75-5.95,0,0
		c-0.27-0.51-1.51,0.12-1.92,0.22c-2.49,0.32-5.01,0.63-7.5,0.96c-1.78,0.11-3.54,0.22-5.3,0.31c-0.95,0.15-1.92,0.26-2.87,0.42
		c0.84-0.14,1.68-0.28,2.51-0.42c-1.48,0.12-2.96,0.23-4.46,0.36l-1.84,0.79c-0.69,0.22-1.42,0.29-2.12,0.37
		c0.51-0.23,1.22-0.31,1.76-0.37c0.03-0.02,0.05-0.02,0.08-0.02l-1.31,0.14c0.81-0.32,1.64-0.62,2.48-0.85
		c19.69-2.63,39.4-5.23,59.08-8.02c-23.08,3-46.15,5.94-69.23,8.95c0.92,0.02-4.21,1.67-5.32,1.99c-0.89,0.09-1.78,0.23-2.67,0.34
		c0.48-0.09,0.92-0.12,0.19-0.2c-0.08,0-0.14,0.02-0.22,0.02c0.06-0.05,0.12-0.06,0.2-0.06c0.08-0.2,0.19-0.4,0.36-0.54
		c0.05,0.03,0.09,0.05,0.16,0.08c0.28-0.11,0.58-0.22,0.86-0.32c-0.02,0-0.05,0-0.06,0.02c0.27-0.09,0.53-0.19,0.8-0.28
		c-1.73,0.28-3.45,0.56-5.18,0.85c0.09,0,0.19,0,0.28,0c-33.71,5.01-78.63,10.71-7.47-1.82c-11.77,1.82-24.12,3.29-35.77,5.41
		c0.19-0.02,0.37-0.03,0.55-0.06c0.64-0.09,1.28-0.2,1.92-0.29c-0.64,0.09-1.2,0.28-1.84,0.39c-0.05-0.02-0.09-0.03-0.14-0.03
		c-21.03,3.37-23.5,3.25-1.04-0.06c32.31-8.6-36.16,5.63-37.64,5.94c-107.18,19.94-9.59,0.4,28.55-6.69
		c-0.48-0.09-0.95,0.05-1.43,0.11c0,0.08-0.7,0.26-0.81,0.26c0.3-0.14,0.76-0.12,0.2-0.11c0,0,0.33-0.09,0.47-0.14
		c-6.28,0.91-14.35,2.43-20.46,2.92c-7.58,1.33-25.57,5.66-5.38,0.73c5.66-1.22,11.94-2.07,17.73-3.12
		c-11.68,1.96-23.37,3.73-35.05,5.66c0.14-0.06,0.28-0.08,0.41-0.14c-0.23-0.03-0.47-0.06-0.7-0.09c-1.59-0.23-1.19,0.05-2.35,0.03
		c-0.45-0.02,0.59-0.28,0.65-0.29c-0.06-0.05-0.14-0.03-0.2-0.08c5.05-0.8,10.1-1.62,15.16-2.47c16.45-2.26,32.89-4.51,49.32-6.82
		c-10.63,1.42-21.28,2.84-31.93,4.28c-0.27,0.03-0.55,0.05-0.83,0.08c-3.27,0.45-6.55,0.91-9.82,1.36c4.3-0.74,8.62-1.44,12.93-2.15
		c14.74-2.18,29.49-4.33,44.22-6.52c-11.93,0.79-29.14,4.17-41.57,6.06c3.54-0.56,7.08-1.17,10.6-1.76
		c7.89-1.13,41.66-5.97,11.99-1.9c7.25-1.36,4.62-0.83-0.56,0.02c-16.81,2.23-33.62,4.48-50.43,6.77
		c17.48-2.91,112.49-18.54,35.49-5.98c-13.71,2.23-27.4,4.45-41.09,6.68c-0.41,0.09-0.83,0.14-1.23,0.19
		c6.03-1,12.05-2.01,18.09-3.03c-8.87,1.41-17.74,2.8-26.62,4.19c-0.51,0.08-8.95,1.17-9.01,1.22c0-0.11-0.36-0.02-0.41,0
		c-1.04,0.11-2.25,0.46-3.24,0.76c-5.66,0.88-11.3,1.76-16.95,2.63c-1.2-0.02-1.45,0.06-2.74,0.26c0.22,0.05,0.47,0.05,0.7,0.11
		c-0.28-0.03-0.56-0.06-0.84-0.09c-0.19,0.03-3.43,0.51-2.84,0.63c-0.94,0.14-1.86,0.29-2.79,0.43c0.39,0.06,0.8,0.06,1.19,0.09
		c-0.7,0.08-0.97-0.02-1.59,0c-1.61,0.25-3.23,0.51-4.83,0.76c1.65-0.56-1.36,0.17-1.5,0.2c-4.74,0.97-10.51,1.55-15.36,2.01
		c-33.46,4.48-33.45,4.2-0.08,0.02c-2.12,0.31-49.76,9.68-28.1,2.01c11.24-0.76,22.61-4.39,32.45-5.19c0.51-0.14,0.31-0.2-0.02-0.19
		c-2.57,0.29-4.3,0.57-6.85,0.66c-10.09,1.98-20.44,2.52-30.64,3.6c8.87-1.17,29.92-3.09,37.8-5.15c-0.31,0.03-0.64,0.06-0.95,0.09
		c0.41-0.17,0.98-0.06,1.43-0.2c1.06-0.82-16.87,1.45-19.69,1.76c5.13-0.8-17.53,1.76-19.79,2.04c-43.58,4.64,59.3-8.36,14.53-1.95
		c85.85-11.7-15.95,1.52-38.95,4.55c-2.37,0.29-3.85,0.34-6.16,0.4c-0.12,0,0.61,0.26,0.98,0.45c1.33,0.68,2.26,1.45,3.24,2.54
		c1.28,1.48,2.03,2.84,2.59,4.72c0.33,1.28,0.47,2.38,0.34,3.69c-0.14,1.04-0.56,1.7-0.09,0.6c1.73-3.63,5.01-7.42,7.72-10.42
		c1.53-1.65,3.07-3.18,4.6-4.79c3.76-3.26,64.48-56.37,33.87-27.02c3.01-2.55,6.13-5.02,9.08-7.65c4.6-3.88,9.18-7.78,13.77-11.67
		c-1.18,1.3-2.39,2.58-3.57,3.88c2.54-2.35,4.46-4.65,7.19-6.93c-1.81,1.76-3.62,3.51-5.41,5.3c-0.56,0.49-1.12,1-1.7,1.5
		c0.31-0.29,0.62-0.51,0.97-0.77c-1.08,1.07-2.14,2.15-3.21,3.23c3.38-3.35,6.8-6.65,10.18-9.99c1.78-1.5,3.57-3.01,5.35-4.51
		c2.29-2.29,4.54-5.26,6.81-7.37c0.2-0.12,0.45-0.26,0.64-0.4c-2.07,2.26-4.16,4.51-6.25,6.74c3.48-2.92,6.95-5.86,10.43-8.8
		c-8.98,8.77-17.93,17.58-26.9,26.37c-0.51,0.53-1,1.08-1.5,1.62c11.34-11.12,22.72-22.2,34.01-33.38c-0.27,0.22-0.53,0.43-0.8,0.65
		c0.09-0.09,0.2-0.19,0.3-0.29c1.25-0.88-0.2,0.08,0.08-0.11c-3.31,1.95,7.5-8.35,7.97-8.89c-0.72,0.53-1.43,1.07-2.14,1.61
		c1.01-1.05,1.68-1.28,2.23-1.81c0.03-0.03,0.08-0.06,0.11-0.09c-0.39,0.19-0.81,0.48-1.18,0.73c1.84-1.96,3.76-3.86,5.61-5.81
		c1.17-0.8,2.34-1.62,3.51-2.44c-1.56,1.86-3.21,3.66-4.88,5.41c1.56-0.74,3.12-1.45,4.68-2.2c-0.12,0.17-0.28,0.31-0.42,0.46
		c-1.56,0.73-3.12,1.45-4.69,2.18c-3.74,3.83-7.45,7.92-11.15,11.83c4.82-4.07,9.4-8.07,14.13-12.21c-10.2,10.85-7.7,8.21,0.37-0.29
		c0.7-0.63,1.4-1.25,2.14-1.84c-0.22,0.09-0.44,0.19-0.65,0.29c0.69-0.71,0.56-0.43,1.26-0.85c0.09-0.08,1.7-1.38,0.72-1.28
		c2.6-2.74,5.19-5.49,7.8-8.22c24.37-23.73,44.39-41.65,69.93-64.13c-1.25,1.17-2.51,2.35-3.76,3.52c-0.28,0.26-0.58,0.54-0.86,0.8
		c0.5-0.43,1-0.88,1.5-1.31c5.41-4.81,10.82-9.6,16.23-14.39c-5.52,5.21-11.04,10.42-16.54,15.63c-0.14,0.12-0.27,0.25-0.41,0.37
		c0.75-0.66,1.51-1.33,2.26-2.01c3.18-2.83,6.36-5.66,9.54-8.49c-0.12,0.11-0.37,0.31-0.37,0.31c0.31-0.19,0.25-0.14,0,0
		c-2.87,2.55-5.74,5.12-8.61,7.67c5.88-5.52,11.76-11.04,17.64-16.56c5.4-5.12,11.15-9.85,16.61-14.9
		c1.51-1.44,14.78-14.47,12.57-12.27c-0.14-0.06-5.72,4.99-6.39,5.52c-0.83,0.68-1.67,1.36-2.49,2.04
		c-28.05,24.61-97.33,86.51-19.01,16.62l19.26-17.18c2.37-2.23,5.57-5.52,8.09-7.44c-0.02,0-0.05,0-0.08,0.02
		c0.28-0.36,0.59-0.66,0.87-1c-0.25,0.26-0.51,0.54-0.76,0.8c-0.28-0.12-4.57,3.59-5.13,4.03c-16.34,13.93-10.17,8.7,0.31-0.82
		c-11.88,10.27-23.73,20.53-35.57,30.86c-4.41,3.74-8.81,7.5-13.22,11.24c0.34-0.31,0.67-0.62,1.01-0.93
		c14.45-12.55,28.91-25.11,43.38-37.66c1.5-0.97,8.25-8.21,5.36-4.48c2.06-1.79,4.1-3.59,6.17-5.35c0.3-0.14-0.48,0.62-0.76,0.91
		c0.19-0.09,0.55-0.29,0.73-0.31c-0.16,0.2-0.33,0.39-0.5,0.59c0.23-0.08,0.61-0.19,0.84-0.17c3.59-4.87,1.92-2.71-0.87-0.74
		c0.22-0.19,1.54-1.3,0.5-0.46c0.25-0.2,1.67-1.45,0.53-0.54c0.19-0.14,0.36-0.29,0.53-0.43c-4.49,3.4-5.38,3.97-10.15,8.18
		c-2.34,2.09-4.68,4.17-7.02,6.26c0.75-0.68-1.22,0.93-0.94,0.37c2.17-2.13,4.96-4.19,7.25-6.29c1.4-1.25,0.16-0.49-0.64,0.29
		c0.72-0.29-6.32,5.6-8.56,7.51c0.42-0.39,0.84-0.77,1.26-1.14c0.34-0.4-24.11,20.73-35.35,30.35c0.61-0.83,1.2-1.67,1.98-2.37
		c-0.11,0.09-0.08,0.11-0.03-0.03c-0.05,0.03-0.08,0.06-0.11,0.09c0.89-1,1.78-2.03,2.67-3.03c3.87-3.99,8.17-7.61,11.94-11.49
		c7.34-6.11,12.24-11.86,19.1-17.5c2.1-1.62,4.21-3.25,6.3-4.89c0.27-0.25,0.53-0.49,0.8-0.76c37.49-28.69,40.84-33.16,2.25-2.12
		c1.28-1.22,2.54-2.44,3.82-3.68c20.5-16.12,25.84-20.5,0.3-0.29c4.58-4.39,9.17-8.78,13.75-13.17c0.62-0.56,1.26-1.07,1.87-1.62
		c-1.65,2.54,0.83-0.49,1.17-0.96c0,0-0.31,0.23-0.45,0.31c0.89-0.76,1.82-1.55,2.68-2.35c-0.73,0.65-1.5,1.3-2.23,1.93
		c-0.44,0.34-0.86,0.7-1.28,1.04c-1.81,1.45-3.6,2.91-5.4,4.36c-0.53,0.57-1.2,1.17-1.78,1.73c-6.81,5.38-12.47,10.08-19.76,14.64
		c6.72-5.18,13.44-10.36,20.18-15.55c0.06,0.08-0.09,0.32-0.12,0.39c0.3-0.23,0.59-0.48,0.9-0.73c-0.11-0.03,0.12-0.28-0.05-0.26
		c2.1-1.62,4.21-3.25,6.3-4.87c0.03,0,0.06,0,0.08-0.02c0.48-0.42,0.97-0.85,1.45-1.27c-0.31,0.23-0.61,0.48-0.92,0.73
		c0.14-0.15,0.28-0.31,0.42-0.46c-0.17,0.19-0.34,0.37-0.51,0.56c-2.32,1.78-4.65,3.57-6.97,5.35c-0.08,0.02-0.12-0.02-0.19-0.02
		c-0.23,0.2-0.45,0.4-0.67,0.6c0.05-0.02,0.11-0.02,0.16-0.02c-6.81,5.27-13.63,10.56-20.46,15.83c-0.84,0.53-1.67,1.07-2.49,1.62
		c0,0,0.69-0.63,1.01-0.94c-0.92,0.11-7.98,5.19-9,5.92c-0.06,0.03-0.12,0.06-0.19,0.09c8.53-6.63-1.17,0.83-3.48,2.58
		c0.42-0.28,0.78-0.63,1.2-0.91c-0.42,0.34-1.28,1.04-1.28,1.04c-0.7,0.57-1.45,1.11-2.15,1.69l-0.03-0.03
		c0.08-0.06,1.01-0.73,0.42-0.46c0.58-0.4,1.15-0.82,1.73-1.24c0.05-0.03,0.09-0.12,0.03-0.08c0.11-0.08,0.17-0.2,0.3-0.29
		c-0.03,0.02,0.19-0.15,0.12-0.15c0.36-0.29,0.65-0.43,0.94-0.82c0-0.02,0.02-0.05,0.02-0.08c-0.03,0-0.05,0.02-0.08,0.02
		c-0.55,0.29-1.14,0.77-1.61,1.17c0.08,0,0.16-0.03,0.22-0.06c-0.05,0.05-0.16,0.14-0.16,0.14c0.14-0.06,0.27-0.11,0.41-0.15
		c-0.78,0.43-0.72,0.31-1.42,0.97c0.03,0,0.05,0,0.08-0.02c-0.02,0.02-0.03,0.03-0.05,0.05c0.16-0.06,0.3-0.12,0.45-0.2
		c-2.93,2.1-5.85,4.2-8.83,6.23c8.79-7,94.66-75.09,36.55-30.84c30.61-24.81-0.05-0.59-10.48,7.45c-1.48,0.88-1.93,3.11-6.55,5.02
		c-0.08,0-0.16,0.02-0.23,0.02c-0.25,0.19-0.48,0.36-0.73,0.53c0.08-0.05,0.16-0.11,0.22-0.17c-0.05,0.05-0.11,0.09-0.16,0.12
		c0.05-0.08,0.12-0.12,0.19-0.2c0.08-0.02,0.25-0.22,0.34-0.22c3.26-2.6,6.55-5.15,9.81-7.73l-0.56,0.28
		c-3.12,2.47-6.24,4.95-9.36,7.42c0.17-0.14,0.33-0.32,0.5-0.46c-4.79,0.82-12.27,7.79,2.29-3.48c0.06-0.11,0.16-0.19,0.23-0.25
		c-0.7,0.51-1.4,1.02-2.1,1.53c0.65-0.53,1.72-1.31,2.23-1.93c-42.8,33.25-112.27,78.75-148.3,114.77c-1.39,1.5-3.24,2.94-5.02,3.94
		c-0.31,0.39-0.58,0.79-0.92,1.16c0.17-0.14,4.18-3.09,2.31-1.3c-0.22,0.15-0.44,0.32-0.65,0.48c0.06-0.06,0.12-0.14,0.17-0.2
		c1.09-0.83,0.28-0.32,0,0c-1.11,1.19-2.34,2.41-3.37,3.66c-0.81,0.54-1.61,1.07-2.42,1.61c1.18-1.25,2.39-2.5,3.57-3.76
		c-0.05,0-0.09,0.02-0.14,0.05c0.16-0.12,0.25-0.26,0.37-0.42c-0.56,0.4-1.75,1.11-2.14,1.62c-0.36,0.43-0.7,0.88-1.01,1.34
		c-0.7,0.6-1.34,1.27-1.96,1.93c0.55-0.36,2.43-1.61,0.61-0.32c-2.18,1.38-4.37,2.74-6.56,4.11c1.34-1.08,2.67-2.16,4.01-3.25
		c-0.27,0.26-0.81,0.77-0.81,0.77c1-0.57,1.06-0.57-0.08,0.11c-0.19,0.2-0.37,0.4-0.58,0.59c0.47-0.36,0.95-0.73,1.42-1.08
		c0.06-0.06,1.29-1.34,0.58-0.82c0.47-0.43,0.97-0.83,1.47-1.24c-0.09,0.08-0.23,0.19-0.3,0.29c0.65-0.4,0.9-0.59-0.11,0.08
		c-0.14,0.15-0.28,0.31-0.42,0.46c0.65-0.54,1.14-0.83,1.67-1.53c-3.38,2.49-6.77,5.02-10.03,7.68
		c-8.56,5.41-17.11,10.82-25.67,16.23c4.26-1.96,8.59-4.38,12.65-6.68c0.05,0.09,0.08,0.17,0.12,0.26c0.64-0.11,5.68-4.1,4.88-3.15
		c0.45-0.39,0.9-0.77,1.36-1.16c0.75-0.6,1.48-1.21,2.23-1.81c-0.64,0.73-1.28,1.47-1.92,2.2c-1.79,1-3.35,2.6-5.13,3.59
		c-16.84,12.54-33.6,25.54-50.26,38.32c-2.56,1.99-4.91,4.05-7.22,6.32c0.89,0.11,6.99-4.59,8.05-5.32
		c10.17-7.2,20.19-14.96,29.94-22.73c-9.76,7.82-19.55,15.63-29.3,23.5c-5.3,4.25-10.68,9.85-14.89,15.13
		c0.37-0.12,0,0.48-0.05,0.57c-2.09,2.1-5.11,6.71-6.58,9.21c-2.12,3.91-3.27,7.03-3.87,11.49c-0.27,3.01-0.09,5.32,0.65,8.26
		c1,3.42,2.31,5.83,4.63,8.55c2.28,2.5,4.37,4.05,7.39,5.58c2.62,1.25,4.85,1.96,7.67,2.55c5.6,1.1,10.28,1.13,15.94,0.74
		c3.4-0.19,7.16-0.29,10.53-0.59c-3.49,0.23-7.05,0.37-10.53,0.54c-5.66,0.39-10.34,0.34-15.92-0.77c-2.82-0.59-5.04-1.3-7.64-2.55
		c-3.02-1.53-5.1-3.08-7.38-5.58c-2.31-2.71-3.6-5.1-4.6-8.5c-0.73-2.92-0.9-5.23-0.64-8.21c0.59-4.44,1.75-7.56,3.87-11.46
		c2.11-3.57,4.18-6.43,6.88-9.55c-1.08,1.44-1.67,2.5-2.57,3.97c-0.09-0.02-0.19-0.05-0.28-0.06c-1.19,1.98-2.26,3.94-3.31,6.01
		c-1.9,3.85-2.98,6.63-3.56,10.98c0.12-0.46,3.07-9.07,2.03-5.53c-0.08,0.25-0.16,0.49-0.22,0.74c0.3-0.57,0.62-1.14,0.98-1.69
		c0.45-1.44,0.97-2.74,1.64-4.07l0.02-0.03c0.47-0.74,0.39-0.48,0.19,0.12c-0.22,0.59-0.42,1.14-0.62,1.73
		c0.25-0.56,0.51-1.1,0.8-1.64c2.12-3.94,4.33-7.13,7.17-10.57c0.69-0.8,1.48-1.61,2.23-2.35c-0.08,0.14-0.14,0.26-0.22,0.4
		c-0.14,0.12-0.27,0.26-0.41,0.39c-0.45,0.54-0.95,1.05-1.4,1.61c-0.42,0.59-0.81,1.19-1.22,1.79c-1.45,1.82-2.82,3.71-4.09,5.67
		c-0.34,0.46-0.69,0.91-1.01,1.38c-0.27,0.49-0.53,1.3-0.76,1.84c-0.36,0.79-0.7,1.48-1.17,2.21l-0.08-0.15
		c-0.59,1.31-1.28,2.91-1.78,4.25c0.17-0.39,0.06,0,0,0.14c-0.12,0.53-0.17,1.21-0.25,1.76c-0.14,0.77-0.25,1.52-0.33,2.3
		c-0.19,2.38-0.08,4.25,0.47,6.59c0.06,0.23,0.12,0.46,0.2,0.7c0.94,2.97,2.17,4.99,4.13,7.37c0.28,0.32,0.56,0.65,0.86,0.97
		c-0.31-0.31-0.61-0.62-0.9-0.93c-2.06-2.35-3.21-4.44-4.12-7.41c-0.7-2.58-0.87-4.64-0.67-7.3c0.06-0.7,0.14-1.36,0.27-2.04
		c-0.23,0.68-0.42,1.31-0.59,2.01c-0.23,1.22-0.36,2.29-0.41,3.52c0.09,0.65,0.34,1.92,0.34,1.92c0.12,0.71,0.27,1.36,0.45,2.06
		c0.59,2.07,1.31,3.63,2.46,5.44c-0.75-1.04-1.4-2.15-1.93-3.32c-0.25-0.7-0.45-1.36-0.64-2.09c-0.7-3.2-0.83-3.48-0.05,0.02
		c0.12,0.56,0.28,1.07,0.45,1.61c-0.22-0.53-0.41-1.02-0.58-1.58c-0.16-0.46-0.28-0.93-0.39-1.39c0.05,0.48,0.12,0.96,0.22,1.44
		c0.72,3.28,1.79,5.64,3.84,8.3c2.09,2.57,3.98,4.13,6.97,5.57c2.56,1.13,4.8,1.56,7.58,1.84c1.08,0.05,2.11,0.06,3.18,0.03
		c-0.9-0.12-1.98-0.28-2.84-0.59c-0.34-0.39,5.16-0.39-0.12-0.66c-2.28-0.25-4.12-0.62-6.3-1.31c0.39,0.09,0.76,0.19,1.15,0.26
		c2.43,0.77,1.7,0.53,0.16,0c-0.76-0.25-1.47-0.51-2.2-0.83c-2.53-1.14-4.3-2.32-6.32-4.21c1.7,1.5,3.65,2.69,5.74,3.56
		c0.22,0.12,0.5,0.23,0.72,0.34c1.42,0.54,2.67,0.82,4.13,1.14c1,0.28,1.96,0.48,2.99,0.66c5.24,0.83,9.71,0.7,14.98,0.2
		c14.59-1.34,29.13-2.38,43.75-3.29c-14.61,0.88-29.22,1.79-43.83,2.58c-4.66,0.31-3.95,0.23,0-0.08
		c0.08,0.03,51.33-3.31,54.87-3.54c2.98-0.15,25.2-1.39,25.26-2.55c-18.38,1.39-64.34,6.71-78.74,5.69
		c0.23-0.06,3.09-0.99,1.64-0.31c0.58-0.09,1.17-0.2,1.76-0.29c-0.78-0.19,1.57-0.53,1.61-0.53c-2.17,0.19-4.35,0.37-6.5,0.57
		c-0.14,0.02-0.28,0.03-0.42,0.05c-1.93,0.36-2.23,0.73-4.43,0.79c0.22-0.03,0.44-0.08,0.65-0.12c-0.56,0.02-1.12,0.03-1.68,0.03
		c0.48,0.12-1.45,0.06-1.45,0.06c-4.69-0.15,6.72-0.76,7.33-0.83c0.09-0.02,1.15-0.17,1.28-0.15c-0.42,0.02-0.87,0.03-1.29,0.06
		c-0.02,0-0.02,0-0.02,0l0.02-0.02c0.45-0.42,13.71-1.19,15.56-1.34c-22.53,2.07,29.39-2.2,32.15-2.41
		c-10.51,0.8-21.02,1.59-31.53,2.4c2.65-0.25,5.3-0.49,7.95-0.74c-4.48,0.32-8.93,0.65-13.41,0.97c-0.25,0.02-0.5,0.03-0.75,0.05
		c0.14,0.05-1.37,0.17-2.06,0.22c0.37-0.05,0.33-0.03,0-0.05c3.95-0.37,7.89-0.96,11.82-1.39c4.63-0.29,9.26-0.59,13.89-0.9
		c-21.47,1.36-5.74-0.11,3.62-1.11c1.81-0.19,3.6-0.37,5.41-0.56c-0.41,0.03-0.83,0.06-1.23,0.09c2.17-0.23,17.21-2.07,17.95-1.79
		c1.84,0.83,3.13,0.39,5.29,0.28c3.23-0.17,6.47-0.45,9.68-0.79c2.06-0.62,4.12-1.24,6.17-1.86c-0.48,0.08-0.95,0.17-1.43,0.25
		c-3.56,0.02-6.49,0.02-1.23,0.14c0.25-0.05,0.5-0.09,0.75-0.14c-0.09,0.05-0.17,0.09-0.27,0.12c0,0-0.09,0.02-0.14,0.02
		c0,0-0.78,0.23-1.15,0.22c-0.05,0-0.06,0.02-0.06-0.03c-2.31,0.36-4.94,0.79-7.25,0.88c-2.04-0.08,5.33-1.21,5.47-1.24
		c2.09-0.17,4.16-0.34,6.25-0.49c1.54-0.32,2.71-0.9,4.51-1.22c-0.5,0.08-1,0.17-1.5,0.25c-0.31,0.02-0.61,0.02-0.9,0.02
		c0.23,0,0.7,0.02,0.7,0.02c-0.08,0.02-3.62,0.74-2.54,0.28c0.2-0.06,0.41-0.11,0.61-0.15c-0.3,0.03-0.59,0.06-0.89,0.09
		c0.5-0.09,1-0.2,1.5-0.29c-6.63,0.91-13.27,1.55-19.91,2.27c0.8-0.09,24.82-2.72,16.4-1.93c1.11-2.3-51.47,7.11-37.36,2.21
		c-43.35,3.09,97.22-9.85,100.76-10.22c-3.94-0.49-45.72,3.29-52.92,3.83c14.89-1.39,29.83-2.72,44.66-4.51
		c0.3-0.03-0.23,0.03-0.27,0.03c21.55-2.13,44.63-3.73,65.91-6.52c-0.31-0.23-60.16,5.06-66.71,5.58c1.7-0.36,3.37-0.65,5.1-0.83
		c1.64-0.15,5.66-0.4,7.13-0.74c-0.12-0.05-2.4,0.14-2.62,0.15c2-0.25,4.01-0.49,6-0.74c-0.62,0.11-1.26,0.23-1.89,0.34
		c1.43-0.09,1.11-0.14,2.37-0.45c1.23-0.12,2.46-0.31,3.7-0.45c-0.75,0.25-1.59,0.57-2.35,0.76c1.37-0.03,2.78-0.15,4.13-0.28
		c0.05-0.09,0.09-0.17,0.17-0.23c0.97,0.23,1.08,0.11,2.01,0c0.08-0.02,0.14-0.08,0.16,0.03c0.36-0.05,0.72-0.09,1.09-0.12
		c0.27,0.22,1.28-0.09,1.57-0.17c0.22,0.02,0.45-0.02,0.69-0.03c0.16-0.05,2.45-0.79,1.23-0.14c2.26-0.25,4.38-0.59,6.61-0.96
		c4.8-0.57,9.62-1.14,14.42-1.72c-0.03,0-0.05,0-0.06,0c0.59-0.06,1.19-0.12,1.78-0.19c1.54-0.32,3.12-0.59,4.68-0.83
		c0.72-0.06,1.42-0.12,2.14-0.19c19.01-4.41-9.37,0.22-12.76,0.54c0.08-0.02,0.17-0.05,0.27-0.08c-0.7,0.09-1.42,0.19-2.12,0.28
		c-1.28,0.11-2.56,0.23-3.84,0.34c0.09-0.03,0.17-0.05,0.27-0.08c-0.53,0.03-1.06,0.06-1.59,0.08c0.2,0.05,0.39,0.08,0.58,0.12
		c-1.51,0.25-3.9-0.39-5.15,0.53c7.24-0.54,14.47-1.08,21.72-1.62c-7.69,0.7-15.36,1.41-23.05,2.12c-2.54,0.23-5.07,0.42-7.61,0.66
		c-0.3,0-0.45-0.12-0.76-0.05c0.12,0.02,0.22,0.06,0.34,0.05c-1.82,0.2-3.66,0.26-5.49,0.42c0,0-0.2,0.03-0.14-0.02
		c0.06-0.02,0.2-0.03,0.2-0.03s-0.14-0.03-0.22-0.02c0.17-0.03,0.33-0.05,0.48-0.06c-0.16,0-0.33,0.02-0.48,0.02
		c-0.14-0.03-0.55,0.05-0.69,0.08c0.22,0.03,0.42,0.06,0.64,0.11c-1.56,0.17-3.1,0.29-4.66,0.42c1.28-0.17,2.54-0.32,3.82-0.46
		c-0.14-0.03-0.28-0.06-0.42-0.09c1.56-0.12,3.1-0.29,4.66-0.42c0.55-0.05,1.11-0.09,1.65-0.14c1.31-0.37,8.28-0.8,9.99-0.96
		c-1.56,0.11-3.1,0.22-4.66,0.32c-1.82,0.17-4.23,0.59-5.97,0.48c0.59-0.05,1.19-0.09,1.78-0.15c-0.05,0.03-0.09,0.05-0.12,0.06
		c0.27-0.03,0.55-0.06,0.81-0.09c-0.19,0.02-0.36,0.02-0.55,0.02c0.22-0.06,0.44-0.14,0.67-0.2c0.05-0.03,0.12-0.06,0.05-0.09
		c10.79-0.97,21.58-1.99,32.37-2.98c-9.15,0.77-18.31,1.53-27.44,2.3c0.03-0.02,0.08-0.05,0.12-0.06c-0.09,0.03-0.19,0.05-0.27,0.08
		c0.02,0,0.05,0,0.06-0.02l-0.06,0.02l0.06-0.02c-4.49,0.49-9.15,0.7-13.67,1.02c1.29-0.2-0.36-0.02-0.61,0.02
		c0,0.05,0.14,0.03,0.14,0.08c-0.37,0.02-0.73,0.02-1.11,0.03c3.12-0.34,6.25-0.65,9.39-0.99c-0.12,0.05-0.23,0.09-0.34,0.12
		c9.01-1.36,19.29-2.06,28.49-3c5.4-0.45,10.79-0.91,16.19-1.38c-0.36,0-0.73,0-1.11,0c-4.77,0.31-9.57,0.73-14.35,1.16
		c4.24-0.43,8.45-0.79,12.69-1.16c-0.22-0.11-28.1,2.57-30.03,2.75c-1.06-0.08-2.2-0.06-3.27-0.08c3.31-0.36,73.52-5.8,48.48-5.7
		c0.92-0.06,1.84-0.11,2.74-0.2c2.35-0.02,10.81,0,2.88-0.28c-1.57-0.05-3.15-0.11-4.72-0.15c1.54-0.11,3.1-0.25,4.66-0.42
		c0.47-0.14-0.83-0.11-1.26-0.09c1.67-0.12,3.34-0.25,5.02-0.37c-0.34,0.05-0.69,0.11-1.03,0.15c0.03,0,0.05,0,0.08,0
		c-0.73,0.12-1.45,0.25-2.18,0.37c0.03,0,0.05,0,0.06-0.02c-0.23,0.06-0.48,0.11-0.73,0.14c8-0.15,42.9,1.65,17.06-1.02
		c-0.02-0.15,0.9-0.32,1-0.34c-2.76-0.34-5.52-0.65-8.28-0.94c2.99-0.14,5.97-0.32,8.95-0.53c0.36,0.09,1.2,0.23,1.2,0.23
		s-1.19,0.17-1.78,0.23c0.9,0.14,1.79,0.29,2.68,0.43c19.38-2.32,40.18-2.26,59.77-4.45c-15.42,0.66-31.08,1.53-46.47,1.95
		c-0.41-0.23,10.77-1.48,13.1-1.75c10.79-0.9,22.38-1.61,33.07-2.92c-7.16,0.57-14.36,0.99-21.52,1.52
		c10.2-1.76,20.4-3.51,30.58-5.26c4.41-0.68,8.81-1.34,13.22-1.99c-7.3,0.96-14.63,1.86-21.94,2.72
		C1183.94,856.41,1186.83,855.97,1189.71,855.56L1189.71,855.56z"/>
	<path class="st1" d="M990.92,970.9c0.17,1.86,0.34,3.73,0.51,5.58c-0.53-8.24-1.34-20.28-0.45-28.21c0.02,0.05,0.03,0.09,0.05,0.14
		c0,0.03,0,0.05,0,0.06c0.11-0.2,0.2-0.39,0.3-0.59c-0.03,0.09-0.19-0.19-0.22-0.14c0,0.03,0,0.05,0,0.06
		c-0.05,0.14-0.09,0.28-0.12,0.4c-0.08-0.76-0.36-2.78,0.02-0.65c0.02-0.03,0.03-0.05,0.05-0.06c0,0.02,0,0.03,0,0.05
		c0.02,0.06,0.03,0.12,0.06,0.17c0.03-0.14,0.08-0.26,0.11-0.4c0.03,0.12,0.05,0.23,0.06,0.34c1.09-2.46,1.06,1.05,1.37,1.78
		c-0.2-0.12-0.34-0.11-0.55-0.19c-0.61-0.22,1.75,4.31,1.81,4.44c-0.42-1.34-0.81-2.71-1.22-4.05c0.47,0.88,1.36,1.92,2,2.71
		c0.06,0.65,0.12,1.3,0.2,1.95c-0.03-0.57,0-1.14-0.02-1.73c0.69,0.85,0.51,0.7,0.64,1.72c-0.02-0.32-0.02-0.63-0.03-0.96
		c0.05,0.03,0.11,0.09,0.14,0.14c0.23,1.36,0.42,2.75,0.55,4.11c0.34-0.68,0.41,0.22,0.42,0.48c0.02,0.32,0.41,3.05,0.45,1.22
		c0.02-1.31-0.28-2.27-0.25-3.25c0.14,0.12-0.05-1.14,0.28-1.28c0.19,0,0.14,0.14,0.27-0.02c0.02,1.34,0.23,1.89,0.05-0.03
		c0.09,0.03,0.09,0.25,0.08-0.14c0-0.29-0.02-0.59-0.11-0.87c-0.03-0.6,0-1.22-0.02-1.84c0.02-0.06,0.05-0.12,0.08-0.17
		c-0.05,0.02-0.05,0.03-0.09,0.03c0-0.03,0-0.06,0-0.09c0.55-0.12,0.34-0.59,0.16-0.93c-0.09-0.05-0.19-0.11-0.28-0.17
		c-0.02-0.02-0.03-0.05-0.05-0.08c-0.02-0.23,0.02-0.4,0.06-0.63c0.06,0.22,0.03,0.45,0.08,0.68c0.33,0.29,0.56,0.79,0.72,1.19
		c0.36,5.4,0.76,10.81,1.17,16.2c-1.34-22-0.97-15.91,0.02,0.23c0.03,0.49,0.25,5.4,0.53,3.79c-0.02,0.02-0.03,0.03-0.05,0.05
		c-0.16-0.28-0.23-0.6-0.17-0.91c-0.64-5.86-0.87-12.74-1.25-18.69c0.55,1.65,0.89,3.39,1.11,5.12c0.11-0.09,0.23-0.19,0.36-0.25
		c0.98,13.85,1.15,16.73,0,0c0.36-0.06,0.37,0.49,0.39,0.71c0.03,0.54,0.55,2.95,0.72,1.22c0.03-0.93-0.08-1.9-0.36-2.78
		c0.02-0.49,0.08-1.13,0.3-1.58c1.47,21.38,1.15,16.62,0-0.03c0.03-0.05,0.11-0.14,0.19-0.14c0.36,0,0.22,0.11,0.45-0.02
		c0.25-0.19,0.28,0.29,0.27-0.19c-0.02-0.45-0.05-0.79-0.45-1.08c-1.11-0.77,0.5-1.56,0.39-1.79c-0.36,0.05-0.72,0.09-1.08,0.14
		c0-0.02,0-0.03,0-0.05c0.39-0.06,0.78-0.12,1.17-0.19c1.79,26.05,1.39,20.1,0,0c0.53-0.11,0.05-0.6-0.03-0.8
		c-0.08-1.07-0.16-2.12-0.23-3.17c0.06-0.74,0.12-1.48,0.19-2.23c-0.06-0.4-0.08-0.8-0.12-1.21c0.05,0.36,0.11,0.71,0.17,1.07
		c0.02-0.63,0.05-1.25,0.08-1.89c-0.03-0.56-0.62-0.82-0.62-0.79c-0.14-0.28-0.16-0.57-0.16-0.88c0.16,0.2,0.19,0.49,0.2,0.74
		c0,0.02,0,0.02,0,0.03l-0.02-0.56c0.23,0.32,0.47,0.7,0.62,1.05c0.73,8.29,1.43,16.62,2.37,24.89c-0.81-9.71-1.53-19.45-2.34-29.16
		c0.02,0.51-1.37-1.96-1.48-2.26c-0.02-0.37-0.06-0.74-0.08-1.13c0.05,0.29,0.06,0.34,0.19,0.09c0-0.03,0-0.06,0-0.09
		c0.03,0.02,0.05,0.05,0.05,0.09c0.16,0.02,0.34,0.06,0.5,0.15c-0.03,0.02-0.06,0.03-0.09,0.06c0.08,0.11,0.16,0.23,0.23,0.36
		c0,0,0-0.02,0-0.03c0.08,0.12,0.14,0.23,0.2,0.34c-0.12-0.73-0.23-1.45-0.34-2.18c-0.02,0.05-0.03,0.08-0.05,0.12
		c-1.78-14.25-3.4-34.32,2.56-3.11c-0.65-4.72-1.06-10.59-2-15.07c0,0.08,0.02,0.15,0.02,0.23c0.03,0.26,0.08,0.53,0.11,0.8
		c-0.03-0.29-0.16-0.48-0.2-0.77c0.02-0.02,0.03-0.05,0.05-0.06c-1.37-8.92-1-9.88,0.16-0.43c5.4,13.34-2.07-14.86-2.32-15.88
		c-9.71-45.25,0.53-3.96,3.96,12.07c0.14-0.22,0.03-0.4,0.03-0.62c-0.08,0.02-0.19-0.26-0.19-0.32c0.11,0.12,0.06,0.29,0.09,0.08
		c0,0,0.06,0.14,0.09,0.2c-0.23-1.95-1.03-7.05-0.97-8.63c-0.64-3.42-3.17-10.67-0.22-2.27c0.59,2.06,0.98,5.26,1.43,7.48
		c-0.84-4.92-1.48-9.85-2.31-14.76c0.05,0.05,0.05,0.11,0.09,0.17c0.06-0.11,0.12-0.2,0.17-0.29c0.44-0.76,0.06-0.46,0.2-0.99
		c0.05-0.17,0.19,0.2,0.23,0.28c0.03-0.03,0.05-0.06,0.08-0.09c0.33,2.13,0.67,4.27,1.03,6.4c0.69,6.93,1.37,13.85,2.11,20.78
		c-0.42-4.48-0.83-8.97-1.23-13.45c0-0.12,0-0.23,0-0.36c-0.14-1.38-0.28-2.75-0.42-4.13c0.33,1.81,0.62,3.62,0.9,5.44
		c0.78,6.21,1.51,12.43,2.31,18.63c0.3-0.66-1.82-15.37-2.09-17.52c0.23,1.5,0.5,2.98,0.75,4.48c0.37,3.31,1.98,17.55,0.75,5.04
		c0.67,3.05,0.41,1.98,0.05-0.23c-0.62-7.08-1.26-14.16-1.93-21.24c6.92,41.51,4.88,29.48-0.17-2.35c-0.05-0.17-0.06-0.36-0.06-0.53
		c0.44,2.55,0.86,5.09,1.29,7.62c-0.55-3.73-1.09-7.47-1.64-11.21c-0.03-0.22-0.31-3.77-0.36-3.8c0.09,0,0.06-0.12,0.05-0.17
		c-0.02-0.42-0.28-1-0.45-1.38c-0.34-2.38-0.67-4.76-1.01-7.14c0.16-0.59,0.11-0.36,0-1.14c-0.06,0.08-0.09,0.19-0.17,0.29
		c0.06-0.12,0.12-0.25,0.17-0.36c0-0.05-0.17-1.45-0.36-1.21c-0.05-0.39-0.11-0.77-0.17-1.17c-0.08,0.15-0.14,0.34-0.2,0.49
		c0-0.4,0.09-0.36,0.16-0.66c-0.09-0.68-0.2-1.36-0.3-2.04c0.39,0.7-0.03-0.53-0.06-0.62c-0.44-1.7-0.55-4.67-0.53-6.48
		c-1.29-14.1-1.01-14.08,0-0.03c-0.33-2.55-4.52-20.31,0.69-11.81c-0.33,4.78,2.2,10.95,2.07,13.68c0.09,0.22,0.17,0.14,0.19,0
		c-0.05-1.39-0.19-1.56,0-2.89c-1.01-4.2-0.56-8.61-0.67-12.89c0.12,1.27,1.19,15.48,1.53,15.92c0-0.14,0-0.26,0-0.4
		c0.14,0.17-0.03,0.4,0.06,0.6c0.7,0.45,0.14-7.98,0.12-8.29c0.31,2.21-0.06-7.2-0.14-8.32c-0.47-18.46,2.71,25.2,0.56,6.12
		c4.23,43.74-1.76-27.53-2.53-35.03c-0.17-1.56-5.54-42.71-0.75-22.59c-0.16-1.64-0.19-3.35-0.41-4.98
		c-0.2-2.52-0.42-5.04-0.65-7.56c0.28,0.73,0.56,1.45,0.84,2.16c-0.23-1.47-0.95-2.54-1-4.14c0.27,1.05,0.53,2.1,0.83,3.14
		c0.05,0.32,0.08,0.63,0.12,0.96c-0.05-0.22-0.02-0.32-0.02-0.53c0.19,0.63,0.37,1.25,0.56,1.89c-0.55-1.96-1.03-3.94-1.56-5.92
		c-0.08-0.97-0.16-1.95-0.23-2.92c-0.34-1.25-1.37-3.09-1.57-4.13c0.02-0.09,0.08-0.23,0.08-0.32c0.5,1.25,0.97,2.52,1.43,3.79
		c-0.14-1.92-0.3-3.82-0.47-5.72c1.34,5.21,2.73,10.42,4.1,15.63c0.09,0.32,0.22,0.6,0.34,0.91c-1.72-6.6-3.38-13.2-5.18-19.77
		c0,0.14,0,0.28,0.02,0.43c-0.03-0.06-0.05-0.12-0.06-0.19c0.08-0.63-0.06,0.09-0.05-0.05c-0.48,1.52-1.73-4.25-2.06-4.9
		c-0.02,0.39-0.03,0.76-0.05,1.13c-0.31-0.99,0.03-0.91-0.05-1.21c0-0.02,0-0.03,0-0.06c-0.09,0.15-0.12,0.4-0.16,0.59
		c-0.41-1.1-0.72-2.23-1.11-3.34c0.09-0.59,0.17-1.19,0.25-1.79c0.47,0.94,0.9,1.99,1.23,2.98c0.39-0.71,0.8-1.42,1.2-2.15
		c0.03,0.09,0.05,0.19,0.09,0.26c-0.41,0.71-0.8,1.42-1.2,2.15c0.69,2.15,1.62,4.55,2.4,6.69c-0.22-2.78-0.51-5.06-0.86-7.82
		c2.21,6.12,1.7,4.68,0-0.2c-0.06-0.39-0.12-0.77-0.12-1.17c-0.06,0.11-0.12,0.2-0.17,0.29c-0.16-0.42,0.03-0.31,0.11-0.63
		c-0.03-0.32-0.12-0.87-0.56-0.56c-0.55-1.56-1.09-3.12-1.65-4.68c-4.33-17.13-4.83-22.08-7.11-39.58c0.16,0.71,0.3,1.44,0.44,2.15
		c0.03,0.17,0.08,0.32,0.11,0.49c-0.05-0.28-0.08-0.56-0.12-0.83c-0.41-3.03-0.83-6.04-1.25-9.07c0.69,3.15,1.36,6.32,2.04,9.48
		c0.02,0.08,0.03,0.15,0.05,0.23c-0.06-0.42-0.12-0.85-0.17-1.27c-0.27-1.78-0.51-3.56-0.78-5.33c0.02,0.06,0.02,0.2,0.02,0.2
		c0.05-0.12,0.05-0.12,0,0c0.23,1.61,0.47,3.22,0.7,4.82c-0.7-3.37-1.4-6.72-2.1-10.08c-0.67-3.08-0.84-6.23-1.43-9.32
		c-0.28-1.27-2.2-8.5-1.87-7.3c-0.14,0.03,0.37,3.18,0.39,3.54c0.02,0.45,0.03,0.9,0.05,1.35c5.1,40.33,5.94,42.1-0.28-0.22
		c-0.22-1.04-0.87-3.62-0.83-4.59c-0.02,0.02-0.03,0.03-0.05,0.03c-0.11-0.17-0.16-0.36-0.25-0.54c0.05,0.15,0.09,0.31,0.16,0.46
		c-0.28,0.06-0.02,2.41,0,2.74c0.83,9.07,0.51,5.53-0.47-0.29c0.73,6.57,1.47,13.14,2.25,19.7c0.22,2.43,0.44,4.85,0.65,7.28
		c-0.05-0.2-0.08-0.39-0.11-0.57c-0.92-8.02-1.84-16.03-2.76-24.06c0.41-1.82-1.34-4.84-0.19-2.92c-0.14-1.14-0.28-2.29-0.37-3.42
		c0.05-0.17,0.23,0.46,0.23,0.48c0.06-0.09,0.12-0.26,0.22-0.32c0.05,0.09,0.09,0.2,0.14,0.31c0.11-0.12,0.25-0.26,0.41-0.32
		c-1.7-2.55-0.89-1.14-1.14,0.12c0-0.11-0.06-0.88-0.05-0.29c0-0.12-0.12-0.96-0.11-0.31c0-0.09,0-0.2,0-0.29
		c-0.17,3.35-0.45,1.02,0.14,5.47c0.19,1.31,0.39,2.63,0.58,3.93c-0.08-0.45-0.03,0.63-0.3,0.42c-0.09-0.12-0.36-3.48-0.45-4.02
		c-0.09-0.66-0.36-0.4-0.17,0.29c0.23-0.34,0.53,3.88,0.61,4.76c-0.03-0.23-0.08-0.48-0.11-0.71c-0.14-0.28,1.43,14.01,1.96,19.51
		c-0.25-0.37-0.58-0.8-0.64-1.25c0,0.06,0.05,0.06-0.05,0c0,0.03,0,0.05,0,0.06c-0.23-0.54-0.48-1.1-0.73-1.64
		c-0.75-2.32-0.98-4.85-1.62-6.89c-0.36-5.53-1.72-6.54-1.95-10.81c0.03-1.11,0.08-2.24,0.08-3.35c-0.05-0.15-0.08-0.31-0.11-0.45
		c0.64-18.8-0.81-23.24-0.27-1.3c-0.19-0.73-0.36-1.47-0.53-2.2c0.02-10.96-0.12-13.87-0.05-0.17c-0.62-2.64-1.23-5.29-1.86-7.93
		c-0.05-0.34-0.06-0.7-0.12-1.04c0.95,1.14,0.2-0.29-0.02-0.63c0,0.08-0.02,0.15-0.05,0.23c-0.03-0.48-0.09-1.02-0.19-1.48
		c0.06,0.39,0.11,0.83,0.14,1.22c0,0.23,0.02,0.46,0.02,0.7c0.03,0.97,0.08,1.95,0.11,2.91c0.08,0.25,0.19,0.76,0.25,1.04
		c0.02,4.22,0.27,6.42-0.73,10.34c0.09-3.57,0.19-7.14,0.28-10.7c0.08-0.02,0.17,0.06,0.22,0.12c0-0.15,0-0.32-0.02-0.48
		c-0.08,0.03-0.14-0.11-0.22-0.05c0.02-1.13,0.05-2.24,0.06-3.35c0.02-0.02,0.03-0.02,0.05-0.03c-0.05-0.26-0.08-0.54-0.12-0.8
		c0.02,0.17,0.02,0.32,0.02,0.49c-0.03-0.09-0.06-0.17-0.09-0.26c0.03,0.11,0.06,0.22,0.11,0.32c-0.05,1.22-0.08,2.46-0.11,3.68
		c-0.05,0.03-0.09,0.05-0.14,0.06c0.03,0.14,0.05,0.26,0.06,0.39c0.03-0.03,0.06-0.05,0.09-0.06c-0.08,3.62-0.16,7.25-0.22,10.87
		c-0.12,0.42-0.2,0.82-0.28,1.25c0,0-0.08-0.39-0.11-0.57c-0.48,0.32-0.86,3.91-0.94,4.53c-0.02,0.03-0.03,0.06-0.05,0.09
		c0.08-4.56-0.06,0.6-0.11,1.81c0.03-0.2-0.02-0.42,0.02-0.63c0.02,0.23,0.03,0.7,0.03,0.7c0,0.39-0.03,0.77-0.02,1.16h-0.05
		c0-0.09,0.05-0.53-0.09-0.26c0.03-0.29,0.08-0.6,0.11-0.9c0-0.03-0.05-0.06-0.05-0.03c0-0.05-0.05-0.09-0.05-0.17
		c0,0.02-0.02-0.11-0.06-0.08c0-0.22,0.09-0.32-0.06-0.53c-0.02,0-0.03-0.02-0.03-0.03c-0.02,0.02-0.03,0.03-0.05,0.03
		c-0.11,0.26-0.09,0.57-0.06,0.85c0.03-0.03,0.06-0.06,0.08-0.09c0,0.03,0,0.08,0,0.08c0.05-0.05,0.09-0.11,0.14-0.17
		c-0.12,0.39-0.22,0.28-0.11,0.73c0.02-0.02,0.03-0.02,0.03-0.03c0,0.02,0.02,0.02,0.02,0.03c0.03-0.08,0.08-0.14,0.12-0.22
		c-0.17,1.52-0.34,3.05-0.58,4.55c-0.06-4.25-0.36-51.71-1.62-20.04c-0.55-16.51-0.48-0.19-0.62,5.41c-0.12,0.4,1.25,1.42-0.11,3.46
		c-0.05,0.03-0.09,0.06-0.14,0.09c-0.02,0.12-0.02,0.25-0.03,0.37c0-0.03,0-0.08,0-0.11c0,0.03,0,0.06,0,0.08
		c-0.03-0.03-0.02-0.06-0.05-0.11c0.05-0.03,0-0.14,0.03-0.17c0-1.75,0.02-3.49,0.02-5.26c0-0.02-0.09,0.29-0.12,0.26
		c0,1.69,0.02,3.35,0.03,5.02c-0.02-0.09-0.06-0.19-0.06-0.29c-1.4,1.13-1.5,6.97-1.31-1.62c-0.05-0.05-0.06-0.09-0.06-0.14
		c-0.03,0.36-0.06,0.73-0.09,1.1c-0.02-0.29,0.02-1-0.12-1.24c-0.34,19.62-6.21,62.87-1.67,78.81c0.33,0.83,0.3,1.86,0,2.69
		c0.11,0.2,0.25,0.37,0.34,0.59c0-0.14,0.16-2.16,0.42-1.1c-0.02,0.11-0.03,0.23-0.05,0.34c-0.02-0.03-0.03-0.08-0.05-0.11
		c0.02-0.6-0.06-0.11,0,0c0.23,0.63,0.48,1.45,0.8,2.04c-0.08,0.42-0.16,0.82-0.23,1.22c-0.25-0.71-0.5-1.42-0.75-2.13
		c-0.02,0.02-0.03,0.03-0.05,0.06c0-0.09-0.05-0.15-0.09-0.23c-0.03,0.26-0.19,0.9-0.05,1.13c0.12,0.23,0.27,0.46,0.42,0.68
		c0.06,0.39,0.17,0.77,0.31,1.14c0.05-0.26,0.25-1.28,0.12-0.29c-0.28,1.08-0.56,2.16-0.84,3.25c-0.02-0.71-0.05-1.44-0.06-2.15
		c0.03,0.14,0.11,0.45,0.11,0.45c0.16-0.46,0.22-0.59,0.05,0.06c0.03,0.11,0.06,0.23,0.09,0.34c0-0.25,0.02-0.49,0.02-0.76
		c0-0.06-0.25-0.76-0.28-0.39c-0.05-0.26-0.06-0.54-0.08-0.8c0.02,0.06,0.02,0.12,0.06,0.17c0.08-0.31,0.11-0.46,0,0.06
		c0.03,0.08,0.06,0.17,0.09,0.25c-0.02-0.4,0.06-0.56-0.16-0.94c-0.16,1.76-0.25,3.54-0.19,5.32c-1.04,4.25-2.11,8.5-3.15,12.75
		c1.03-1.79,1.9-4.03,2.6-5.97c0.09,0,0.19,0.02,0.27,0.02c0.33-0.25,0.31-2.92,0.56-2.44c-0.03-0.25-0.05-0.49-0.08-0.74
		c-0.02-0.4-0.02-0.8-0.03-1.21c0.17,0.4,0.36,0.79,0.53,1.19c-0.28,0.77-0.06,1.89-0.36,2.64c-0.61,9.88-0.97,20.72-1.11,30.63
		c2.12-0.25,2.14-17.56,2.09-19.91c0.17,7.87,0.33,15.75,0.48,23.62c0.16-0.06,0.23,0,0.31,0.14c-0.86,5.92-1.48,13.51-1.96,19.56
		c0.61-6.54,1.4-13.16,2.1-19.71c0.08,0.7,0.23,0.85,0.36,1.38c-0.09,0.02-0.17,0.03-0.26,0.05c0.45,1.78,0.36,2.61,0.28,4.39
		c0.45-0.63,0.7-1.79,0.81-1.21c0,0.06,0.02,0.12,0.02,0.17c0.12-0.14,0.25-0.29,0.39-0.45c-0.06-0.22-0.19-0.83-0.17-1.05
		c0.11-0.45,0.36,0.29,0.42,0.45c0-1.41-0.09-2.81-0.09-4.21c-0.02-0.32,0.14-1.02,0.14-1.02c0.03,0.05,0.06,0.09,0.09,0.14
		c-0.02,0.06-0.02,0.12-0.03,0.17c0,0.23-0.03,0.45-0.03,0.66c0.05,0.23,0.12,0.45,0.2,0.66c0,0.7-0.02,1.38-0.02,2.07
		c-0.06,0.17-0.11,0.34-0.17,0.49c0.09,0.39,0.47,0.63,0.14,1.17l-0.14-0.02c-0.02,0.62-0.03,0.51-0.23,1.07
		c0.05-0.06,0.08-0.05,0.05,0.03c0,0.08,0.12,0.28,0.14,0.37c0.02,0.46,0,0.94,0.02,1.41c0,0.43,0.2,0.87-0.02,1.27
		c-0.02-0.87-0.02-1.75-0.03-2.61c-0.25,0.31-0.47,0.63-0.7,0.94c0.03,0.08,0.11,0.26,0.11,0.26c-0.03,0.31-0.05,0.63-0.06,0.94
		c-0.05-0.14-0.11-0.28-0.16-0.42c0.28-0.88,0.17-0.65-0.05-0.06c0,0-0.06-0.25-0.09-0.37c-1.7,2.47-1.37,2.15-0.25,4.85
		c0.03-0.29,0.06-0.68,0.19-0.93c0.22-0.32,1.76,2.57,0.14-1.39c0.06,0.08,0.12,0.15,0.19,0.22c0.08,0.49,0.08,0.4,0.05,0.03
		c-0.09-0.49-0.19-0.99-0.28-1.48c0.19,0.29,0.36,0.6,0.53,0.9c-0.03,0.09,0.36,0.8,0.41,0.97c0.25,7.9-0.2,15.83-0.84,23.7
		c2.92-33.92,1.37-13.08-0.03,4.64c-0.11,0.83-1.06,12.68,0.14,10.64c0.2-4.33,1.17-31.75,1.87-33.1c0.09,0.23,0.65,1.25,0.16,0.68
		c0.05,0.25,0.08,0.49,0.12,0.74c0.22-0.34,0.36,0.6,0.37,0.68c0.02-0.94,0.03-1.9,0.05-2.84c-0.16-0.59-0.56-0.51-0.5-1.31
		c0.03,0.06,0.06,0.12,0.09,0.2c0.02-0.17,0.02-0.36,0.03-0.53c-0.12,0.15-0.06-0.42-0.06-0.46c0.12-1.89,0.5,2.66,0.5,2.75
		c0.03-0.17,0.05-0.36,0.08-0.54c0.37,0.57-0.12,5.49-0.14,6.54c0.09-9.46-0.62,12.37-0.69,13.53c0.22-4.42,0.44-8.84,0.64-13.26
		c0,1.11-0.02,2.24-0.02,3.35c0.09-1.89,0.2-3.76,0.31-5.64c0-0.09,0.02-0.2,0.03-0.31c-0.09,0.05-0.03-0.85-0.03-0.87
		c0,0.17,0,0.14,0.05,0c0,1.64,0.2,3.32,0.25,4.98c-0.14,1.95-0.28,3.9-0.44,5.84c0.75-9.51,0.66-2.43,0.78,1.53
		c0.02,0.76,0.02,1.52,0.03,2.27c0-0.17,0.02-0.36,0.03-0.53c0.03,0.9,0.37,7.28,0.06,7.56c-0.94,0.7-0.64,0.88-0.78,2.21
		c-0.14,1.36-0.17,2.72-0.14,4.07c0.42,0.88,0.84,1.75,1.26,2.61c-0.03-0.2-0.06-0.4-0.11-0.6c0.34-1.59,0.61-2.71-0.02-0.51
		c0.02,0.11,0.03,0.2,0.06,0.31c-0.03-0.03-0.06-0.08-0.09-0.11c0,0,0-0.05-0.02-0.06c0,0-0.14-0.36-0.09-0.48
		c0-0.05,0-0.03,0.03-0.03c-0.11-0.82-0.31-2.27-0.19-3.06c0.27-0.79,0.69,2.15,0.72,2.32c-0.03,0.88-0.06,1.75-0.09,2.63
		c0.17,0.66,0.58,0.9,0.78,1.9c-0.03-0.2-0.08-0.42-0.11-0.63c0.03-0.12,0.05-0.25,0.08-0.37c-0.03,0.09-0.08,0.29-0.08,0.29
		c0.03,0.14-0.37-1.58-0.03-1.07c0.03,0.08,0.06,0.17,0.09,0.25c0-0.12-0.02-0.25-0.02-0.37c0.05,0.22,0.11,0.42,0.16,0.63
		c-0.28-2.78-0.28-5.58-0.37-8.38c0.02,0.32,0.34,10.47,0.37,6.91c2.14,0.48-2.14-21.6,1.37-15.71c1.09-18.63,0.53,41.17,0.56,42.39
		c0.16-0.29,1.14-20.27,1.25-22.23c-0.05,6.23-0.16,12.55,0.22,18.78c0,0.12,0-0.11,0-0.11c0.06,8.33-0.47,19.83,0.2,27.72
		c0.27-0.12,0.72-25.32,0.83-28.04c0.19,0.73,0.31,1.39,0.34,2.15c0,0.22,0,2.94,0.05,3c0.08-0.05,0.09-1,0.09-1.1
		c0.06,0.83,0.12,1.69,0.19,2.54c-0.06-0.28-0.11-0.54-0.17-0.8c-0.06,0.73,0.03,0.4,0.22,0.99c0.02,0.53,0.08,1.04,0.09,1.56
		c-0.14-0.26-0.42-0.71-0.53-0.99c-0.09,0.54-0.09,1.17-0.12,1.73c0.09,0.02,0.16,0.05,0.23,0.08c-0.33,0.39-0.22,0.39-0.2,0.85
		c0.05,0.05,0.02,0.05-0.03,0.05c0,0.15,0,0.31,0.02,0.46c-0.23,0.11-0.05,0.51,0.02,0.66c-0.05,0.09-0.03,0.19-0.03,0.29
		c0.03,0.14,0.53,1.02,0.02,0.51c0.05,1.1,0.14,1.73,0.31,2.8c0.12,2.01,0.23,4.03,0.34,6.06c0,0,0-0.02,0-0.03
		c0.02,0.26,0.02,0.51,0.03,0.76c0.16,0.63,0.28,1.31,0.37,1.98c0,0.29,0,0.59-0.02,0.9c2.32,7.2,0.7-1.62,0.69-5.36
		c0.02,0.05,0.03,0.08,0.05,0.12c-0.03-0.31-0.05-0.6-0.08-0.9c0.02-0.54,0.03-1.08,0.03-1.62c0.02,0.05,0.03,0.08,0.06,0.12
		c0.02-0.23,0.03-0.45,0.06-0.66c-0.06,0.08-0.11,0.15-0.17,0.23c-0.16-0.43,0.76-1.78-0.03-2.16c-0.16,3.05-0.31,6.09-0.47,9.12
		c0.03-3.22,0.06-6.45,0.09-9.68c0.02-1.08,0.06-2.13,0.06-3.22c0.05-0.12,0.17-0.17,0.12-0.31c-0.03,0.05-0.08,0.08-0.08,0.14
		c-0.03-0.76,0.09-1.55,0.11-2.3c0,0-0.02-0.09,0.03-0.06c0,0.03,0.02,0.09,0.02,0.09s0.03-0.06,0.03-0.09
		c0,0.06,0.02,0.14,0.02,0.2c0-0.06,0.02-0.14,0.03-0.2c0.03-0.06,0-0.23-0.02-0.29c-0.05,0.09-0.11,0.19-0.17,0.26
		c-0.02-0.65,0.02-1.3,0.03-1.96c0.05,0.54,0.08,1.08,0.09,1.62c0.05-0.06,0.09-0.12,0.14-0.19c-0.03,0.65,0,1.31-0.03,1.96
		c0,0.23-0.02,0.46-0.02,0.7c0.14,0.14,0,3.83,0,4.21c0.05-0.65,0.08-1.31,0.11-1.96c0.03-0.65-0.16-1.96,0.11-2.5
		c-0.02,0.25-0.02,0.49-0.03,0.74c-0.02-0.02-0.03-0.03-0.05-0.05c0.02,0.11,0.02,0.22,0.02,0.34c0.02-0.08,0.03-0.15,0.03-0.23
		c0.06,0.09,0.11,0.19,0.16,0.28c0.03,0.03,0.05,0.06,0.09,0.03c-0.08,4.53-0.09,9.07-0.14,13.6c0.11-3.83,0.23-7.68,0.34-11.53
		c0.02,0.02,0.03,0.03,0.05,0.05c-0.02-0.03-0.03-0.08-0.05-0.11c0,0.02,0,0.02,0,0.03v-0.03v0.03c-0.03-1.84,0.17-3.9,0.3-5.75
		c0.08,0.56,0.05-0.15,0.05-0.26c-0.05,0-0.05,0.06-0.09,0.06c0.03-0.15,0.05-0.31,0.08-0.46c0.05,1.31,0.03,2.63,0.08,3.94
		c-0.03-0.05-0.06-0.09-0.09-0.14c0.42,3.14,0.22,8.6,0.27,12c-0.06,2.26-0.11,4.53-0.17,6.8c0.03-0.15,0.08-0.31,0.11-0.46
		c0.16-1.99,0.2-4.03,0.22-6.03c0.02,1.82-0.02,3.52-0.05,5.33c0.11-0.08,0.11-11.81,0.11-12.63c0.17-0.4,0.28-0.94,0.41-1.38
		c0.05,1.55-1.5,31.99,1.04,20.41c-0.02,0.39-0.06,0.79-0.05,1.16c-0.22,0.97-1.11,4.72,0,1.21c0.2-0.65,0.41-1.31,0.61-1.98
		c-0.03,0.65-0.05,1.31-0.03,1.96c0.09,0.25,0.22-0.53,0.22-0.53c-0.05,0.71-0.08,1.41-0.11,2.1c-0.03-0.14-0.05-0.28-0.06-0.42
		v0.02c-0.06-0.29-0.11-0.6-0.17-0.91c0,0.02,0,0.02,0,0.03c-0.03-0.09-0.05-0.22-0.05-0.31c-0.81,4.38-4.97,16.23-0.62,7.16
		c0.14,0,0.22,0.32,0.23,0.43c0.61-1.14,1.18-2.3,1.75-3.46c-0.14,1.25-0.25,2.5-0.33,3.76c-0.12,0.14-0.27,0.34-0.34,0.51
		c0,0-0.06-0.53-0.08-0.76c-0.22,0.37-0.45,0.76-0.69,1.13c0.42,7.41-1.59,17.35-1.28,25.12c0.8-6.35,1.48-13.26,2.51-19.51
		c0.25-0.46,0.47,4.89,0.5,5.52c-0.14,4.1-0.51,9.89-0.25,13.9c0.11-2.97,0.37-6.06,0.55-9.04c0.78,4.3,1.56,8.6,2.34,12.89
		c0.25,1.86,0.5,3.71,0.72,5.58c-0.27-3.08-0.45-6.15-0.62-9.24C990.64,968.47,990.78,969.69,990.92,970.9L990.92,970.9z"/>
</g>
<g>
	<path class="st2" d="M425.54,1169.22h-31l-7.24,19.98h-8.42l27.11-72.79h8.21l27.11,72.79h-8.42L425.54,1169.22z M397.36,1161.88
		h25.49l-7.99-21.6c-0.79-2.45-1.57-4.88-2.32-7.29c-0.76-2.41-1.53-4.84-2.32-7.29h-0.22c-0.79,2.45-1.57,4.88-2.32,7.29
		c-0.76,2.41-1.53,4.84-2.32,7.29L397.36,1161.88z"/>
	<path class="st2" d="M485.48,1116.41h8.21v65.23h34.78v7.56h-42.98V1116.41z"/>
	<path class="st2" d="M573.5,1116.41h43.96v7.45h-35.75v23.98h33.59v7.56h-33.59v26.35h36.39v7.45h-44.6V1116.41z"/>
	<path class="st2" d="M712.61,1138.87c0,3.31-0.58,6.36-1.73,9.13c-1.15,2.77-2.79,5.18-4.91,7.24c-2.12,2.05-4.7,3.65-7.72,4.81
		c-3.02,1.15-6.41,1.73-10.15,1.73h-14.58v27.43h-8.21v-72.79h23.44c3.74,0,7.11,0.58,10.1,1.73c2.99,1.15,5.49,2.74,7.51,4.75
		c2.02,2.02,3.56,4.39,4.64,7.13C712.07,1132.75,712.61,1135.7,712.61,1138.87z M704.4,1138.87c0-4.61-1.33-8.24-4-10.91
		c-2.67-2.66-6.55-4-11.66-4h-15.23v30.24h14.58c5.11,0,9.11-1.37,11.99-4.1C702.96,1147.37,704.4,1143.62,704.4,1138.87z"/>
	<path class="st2" d="M803.76,1155.5h-36.83v33.7h-8.21v-72.79h8.21v31.32h36.83v-31.32h8.21v72.79h-8.21V1155.5z"/>
	<path class="st2" d="M970.08,1116.41h8.42l-26.78,72.79h-8.32l-26.79-72.79h8.42l16.74,46.01c1.01,3.02,1.96,6.03,2.86,9.02
		c0.9,2.99,1.82,5.99,2.75,9.02h0.21c1.01-3.02,1.96-6.01,2.86-8.96c0.9-2.95,1.82-5.94,2.75-8.96L970.08,1116.41z"/>
	<path class="st2" d="M1022.46,1116.41h43.96v7.45h-35.75v23.98h33.59v7.56h-33.59v26.35h36.4v7.45h-44.6V1116.41z"/>
	<path class="st2" d="M1153.68,1165.66c1.44,2.3,2.75,4.55,3.94,6.75c1.19,2.2,2.18,4.09,2.97,5.67h0.22
		c-0.36-2.45-0.6-4.88-0.7-7.29c-0.11-2.41-0.16-5.09-0.16-8.05v-46.33h8.21v72.79h-8.75l-30.67-49.25
		c-1.44-2.23-2.75-4.46-3.94-6.7c-1.19-2.23-2.18-4.14-2.97-5.72h-0.22c0.36,2.45,0.59,4.88,0.7,7.29c0.11,2.41,0.16,5.09,0.16,8.05
		v46.33h-8.21v-72.79h8.75L1153.68,1165.66z"/>
	<path class="st2" d="M1241.7,1123.97v65.23h-8.21v-65.23l-22.25,0.11v-7.78h52.71v7.78L1241.7,1123.97z"/>
	<path class="st2" d="M1334.04,1190.17c-4.18,0-7.94-0.59-11.29-1.78c-3.35-1.19-6.21-3.02-8.59-5.51c-2.38-2.48-4.2-5.6-5.45-9.34
		c-1.26-3.74-1.89-8.21-1.89-13.39v-43.74h8.21v43.85c0,7.63,1.64,13.27,4.91,16.9c3.28,3.64,7.97,5.45,14.1,5.45
		c6.12,0,10.82-1.82,14.09-5.45c3.28-3.63,4.91-9.27,4.91-16.9v-43.85h8.21v43.74c0,5.18-0.63,9.65-1.89,13.39
		c-1.26,3.74-3.08,6.86-5.45,9.34c-2.38,2.48-5.24,4.32-8.59,5.51C1341.97,1189.58,1338.21,1190.17,1334.04,1190.17z"/>
	<path class="st2" d="M1461.37,1137.95c0,5.27-1.53,9.82-4.59,13.64c-3.06,3.83-7.22,6.39-12.47,7.69l17.6,29.92h-8.96l-17.06-29.05
		h-0.11h-15.98v29.05h-8.1v-72.9h25.81c3.74,0,7.11,0.56,10.1,1.68c2.99,1.12,5.49,2.65,7.51,4.6c2.01,1.95,3.56,4.24,4.64,6.88
		C1460.83,1132.09,1461.37,1134.92,1461.37,1137.95z M1453.16,1138.01c0-4.32-1.33-7.72-4-10.21c-2.66-2.48-6.55-3.73-11.66-3.73
		h-17.71v28.51h17.06c5.11,0,9.11-1.3,11.99-3.89C1451.72,1146.11,1453.16,1142.54,1453.16,1138.01z"/>
	<path class="st2" d="M1508.02,1116.41h43.96v7.45h-35.75v23.98h33.59v7.56h-33.59v26.35h36.39v7.45h-44.6V1116.41z"/>
	<path class="st2" d="M1617.75,1190.17c-5.18,0-9.38-0.4-12.58-1.19c-3.21-0.79-5.96-1.8-8.26-3.02l2.16-6.7
		c2.09,1.01,4.61,1.87,7.56,2.59c2.95,0.72,6.33,1.08,10.15,1.08c2.59,0,4.99-0.25,7.18-0.76c2.2-0.5,4.08-1.28,5.67-2.32
		c1.58-1.04,2.82-2.39,3.72-4.05c0.9-1.66,1.35-3.63,1.35-5.94c0-2.3-0.47-4.21-1.4-5.72c-0.94-1.51-2.21-2.81-3.83-3.89
		c-1.62-1.08-3.47-2-5.56-2.75c-2.09-0.76-4.29-1.49-6.59-2.21c-2.3-0.72-4.64-1.58-7.02-2.59c-2.38-1.01-4.57-2.29-6.59-3.83
		c-2.02-1.55-3.66-3.47-4.91-5.78c-1.26-2.3-1.89-5.15-1.89-8.53c0-2.74,0.45-5.27,1.35-7.61c0.9-2.34,2.32-4.36,4.27-6.05
		c1.95-1.69,4.43-3.02,7.45-4c3.02-0.97,6.66-1.46,10.91-1.46c3.6,0,6.88,0.34,9.83,1.03c2.95,0.69,5.62,1.64,7.99,2.86l-2.16,6.7
		c-2.09-1.01-4.5-1.82-7.24-2.43c-2.74-0.61-5.54-0.92-8.42-0.92c-5.69,0-9.79,1.1-12.31,3.29c-2.52,2.2-3.78,5.02-3.78,8.48
		c0,2.09,0.43,3.85,1.29,5.29c0.87,1.44,2.03,2.68,3.51,3.73c1.47,1.04,3.2,1.96,5.19,2.75c1.98,0.79,4.08,1.55,6.32,2.27
		c2.59,0.86,5.17,1.82,7.72,2.86c2.55,1.04,4.86,2.38,6.91,4s3.71,3.6,4.97,5.94c1.26,2.34,1.89,5.24,1.89,8.69
		s-0.61,6.45-1.84,8.96c-1.22,2.52-2.93,4.61-5.13,6.26c-2.2,1.66-4.83,2.9-7.88,3.73
		C1624.68,1189.76,1621.35,1190.17,1617.75,1190.17z"/>
</g>
</svg>
