<?xml version="1.0" encoding="utf-8"?>
<!-- Generator: Adobe Illustrator 25.3.1, SVG Export Plug-In . SVG Version: 6.00 Build 0)  -->
<svg version="1.1" id="Layer_1" xmlns="http://www.w3.org/2000/svg" xmlns:xlink="http://www.w3.org/1999/xlink" x="0px" y="0px"
	 viewBox="0 0 1000 773.3" style="enable-background:new 0 0 1000 773.3;" xml:space="preserve">
<style type="text/css">
	.st0{fill:#ED1C24;}
	.st1{fill:#FFF200;}
</style>
<g>
	<path class="st0" d="M107.8,226.3l73.9-4.8c1-0.1,2-0.1,2.9-0.1l1.1,0c1,0,1.9,0,2.8,0l0.9-5.2l58.6-4.5l9.5,22l23.5-1.8
		c5.3-4.6,11.1-8.9,17.5-12.7l0.4-0.2c9.3-5.6,19.5-10.1,30.3-13.5l-2.1-3.8l13.6,0.7c1.7-0.4,3.4-0.8,5.1-1.1
		c16.9-3.3,34.8-3.8,53.1-1.6c5.6,0.7,11.1,1.7,16.4,2.8c11.1-1.2,20.6-3.2,28.4-6c0.9-0.3,1.7-0.7,2.5-1l-8,13.8
		c3.8,1.4,7.5,3,11.1,4.7c6.2,2.9,11.9,6.3,17.4,10l22.1,1.9l5.4-17.9l91.9,5.7l5.3,21.2l22.6,2l9.8-20.8l63.1,3.9l15.1-63.2
		c1.1-5.3,2.3-10.6,3.3-15.9c1.1-5.3,2.2-10.6,3.2-16c0.3,5.1,1,10.6,2,16.3c1,5.8,2.3,12,4.1,18.6l13.7,54.9l56.3,2.8l24.2-50.9
		c3-6.3,5.6-12.2,7.8-17.7c2.2-5.5,4-10.8,5.4-15.8c-0.2,5.4-0.2,10.8-0.2,16.2c0,5.4,0,10.8,0.1,16.2l1.5,53.9l23,1.1
		c16,0.8,30.2,3.4,42.2,7.9c3.3,1.2,6.4,2.6,9.4,4.1L883.3,62.3l-78.7-5.7l-20.3,41.7c-5,10.2-9.1,19.5-12.3,27.8
		c-3.2,8.3-5.8,16.1-7.7,23.5l-1.3-0.1c-0.2-12-2.6-27.4-7-46.3c-0.7-2.8-1.2-4.9-1.5-6.3L744,52.3l-78.8-5.7L630.4,157L604.9,67
		L524.4,60l-22.1,38.2c-1.9-6.9-4.8-13.4-8.8-19.6c-8.7-13.4-21.8-24.5-39.2-33.3c-8.3-4.1-19.1-7.4-32.6-9.8
		c-13.5-2.4-29.8-4.1-49.1-5L312,27.5l-9.2,130.1L245.3,53.5l-86.5,6.7L107.8,226.3z M197.6,172.4l8.8-61l1.3-0.1l22.2,58.6
		L197.6,172.4z M428.7,119.9c-0.8,11.5-5.3,19.7-13.4,24.7c-8.2,5-20.7,7.1-37.5,6.4l4.7-66.9l3.3,0.2c15.4,0.7,26.6,4.1,33.6,9.9
		C426.4,100.1,429.5,108.7,428.7,119.9z M535,168.4l21.5-54.4l1.2,0.1l7.4,56.9L535,168.4z"/>
	<path class="st0" d="M68.8,460.5c-1.1,11.2,1.9,20.8,8.9,28.9c7,8,17.6,14,31.9,18c2.4,0.6,5.8,1.5,10.2,2.6
		c13.5,3.3,20.1,7.2,19.7,11.7c-0.3,2.6-1.8,4.5-4.7,5.9c-2.9,1.3-6.7,1.8-11.5,1.5c-6.8-0.5-14.1-2.3-21.7-5.5
		c-7.6-3.2-16.1-8.1-25.6-14.6l-26.8,43.8c12.2,6.9,24.6,12.3,37.1,16.2c12.5,3.9,25.1,6.3,37.9,7.1c25,1.7,45.8-2.6,62.5-12.9
		c16.1-10,25.2-23.5,27.4-40.5c1.1,2.4,2.3,4.7,3.7,7c6.4,10.5,15.1,19.6,26.2,27.2c11.2,7.8,23.8,13.4,37.7,16.8
		c13.9,3.4,28.7,4.6,44.4,3.6c8.6-0.6,17-1.9,25.3-4.1c8.3-2.1,16.5-5.1,24.7-8.8l17,18.8l56.9-25.6l-34.1-26.8
		c4.6-6.9,7.9-14.1,10.1-21.6c0.1,0.4,0.1,0.9,0.1,1.3c1,6.7,3.1,12.4,6.2,17c6.2,9.5,15.2,17,26.9,22.5c11.7,5.5,25.4,8.8,41,9.7
		c15.6,0.9,29.6-0.7,42.1-4.8c12.5-4.1,22.7-10.5,30.5-19.1c2.9-3.1,5.3-6.9,7.3-11.3L562,589.1l82.9-8.1l3.4-23l58.2-5.7l10.1,21.7
		l46.1-4.5l-1.6,16.6l51.6,3.5c21.3,1.5,38.4,1.8,51.3,1.1c12.9-0.7,23.6-2.6,32.2-5.6c17.7-6.3,31.6-15.2,41.8-26.6
		c10.2-11.5,16-25,17.6-40.4c1.5-15.6-1.6-29.7-9.4-42.5c-7.8-12.8-19.8-23.4-35.9-32c-7.7-4-17.8-7.3-30.4-9.8
		c-1.5-0.3-3.1-0.6-4.8-0.9c-11.6-2.1-25.4-3.7-41.2-4.7l-56.8-3.9l-0.8,8.6l-7.9,79.9L719.9,430l-4.9-8.3l-14.9-25.4l-0.7-1.2
		l-7.2,0.7l-78.7,7.6L585,506c0.6-3.7,1.1-7.6,1.5-11.9l6.8-78.8l-62.9-3.7l-6.8,79.2c-0.8,9-2.7,15.2-5.7,18.6
		c-3,3.4-7.7,4.9-14,4.6c-6.4-0.4-10.7-2.4-13.1-6c-2.3-3.6-3.1-10-2.3-19.2l6.8-79.2l-62.9-3.7l-5.6,65c-1.9-9.3-5.3-18-10.1-26
		c-6.4-10.5-15.1-19.7-26.1-27.4c-3.3-2.3-6.7-4.3-10.2-6.2c-8.5-4.6-17.6-8.1-27.5-10.6c-11.9-3-24.4-4.3-37.5-3.9
		c-2.3,0.1-4.7,0.1-7,0.3c-15.8,1.1-30.2,4.2-43.3,9.4c-13.1,5.2-24.3,12.4-33.7,21.4c-9.4,8.9-16.2,19-20.5,30.4
		c-4.1,10.8-5.6,22.4-4.6,34.6c-0.3-0.3-0.5-0.7-0.8-1c-7-8.3-17.1-14.1-30.2-17.5c-1.7-0.4-4-1-7.1-1.8c-19.1-4.8-28.5-9.4-28-14
		c0.2-2.4,1.8-4.2,4.6-5.4c2.8-1.2,6.6-1.6,11.5-1.3c6.4,0.4,12.9,2,19.5,4.6c6.6,2.6,13.1,6.2,19.4,10.8l25.5-40.9
		c-10.5-5.7-21.1-10.1-31.7-13.3c-8.4-2.5-17-4.2-25.7-5.2c-2.3-0.3-4.6-0.5-7-0.7c-15.4-1-29.1,0.2-41.1,3.8
		c-7.1,2.1-13.6,4.9-19.5,8.6C79.4,429.5,70.5,443.1,68.8,460.5z M351.8,493.3l-46.2,10.8l18.4,14.7l-3.8,0.3
		c-10.8,0.7-19.6-1.6-26.4-6.9c-6.8-5.3-10.7-12.9-11.7-22.7c-1-9.8,1.5-17.9,7.3-24.4c5.8-6.5,14-10.1,24.5-10.8
		c10.5-0.7,19.2,1.7,26.2,7.2c7,5.5,10.9,13.3,11.9,23.2c0.1,1.4,0.2,2.8,0.2,4.2C352.2,490.4,352.1,491.9,351.8,493.3z
		 M655.2,514.4l7-60.9l1.3-0.1l23.8,57.9L655.2,514.4z M884.2,513.2c-1.1,10.8-5.5,18.4-13.3,23c-7.8,4.6-19.6,6.3-35.4,5.3
		l6.2-62.7l3.1,0.2c14.4,1,24.8,4.3,31.3,9.9C882.6,494.5,885.3,502.6,884.2,513.2z"/>
	<g>
		<path class="st1" d="M99.1,403.3c3.9-1.8,8-3.3,12.3-4.6c13.5-4,28.8-5.4,45.6-4.3c2.5,0.2,5,0.4,7.5,0.7c9.6,1.1,19,3,27.9,5.7
			c4,1.2,8.1,2.6,12.1,4.2c22.2-2.1,39-7.2,50.2-15.5c10.3-7.6,15.7-17.7,16.2-30.3c2.7,3.9,5.7,7.7,9,11.4
			c5,5.4,10.5,10.3,16.5,14.7c3.6-0.5,7.2-0.9,11-1.1c2.6-0.2,5.1-0.3,7.6-0.3c14.2-0.4,28,1.1,40.8,4.3c10.7,2.7,21,6.6,30.5,11.8
			c4.3,2.3,8,4.6,11.4,6.9c1.4,1,2.7,2,4.1,3c3-0.4,6-0.9,9-1.4c3-0.6,5.8-1.3,8.7-2.1l1.2-14.1l29.7,1.8c1.2-0.6,2.3-1.2,3.5-1.9
			c5.3-3.2,10-6.8,14.5-10.5l55.7,3.5l14.4-63.6c1-4.9,1.9-9.8,2.9-14.6c0.9-4.8,1.9-9.7,2.8-14.7c0.4,4.7,1,9.7,2,15
			c0.9,5.3,2.3,11,3.9,17l16.7,63.7l41.7,2.6l28.1-60.9c2.7-5.8,5-11.2,6.9-16.3c1.9-5.1,3.5-10,4.8-14.6c-0.1,5-0.1,9.9,0,14.9
			c0.1,4.9,0.2,9.9,0.2,14.9l2.4,58.5l55.3-5.4l9.2,15.7l1.3,0.1l-0.1,1.8l18.5,31.6l28.5,1.4l2.1-21.5l69.1,4.7
			c16.2,1.1,30.5,2.8,42.5,4.9c1.7,0.3,3.4,0.6,5,1c5.7,1.2,11,2.5,15.8,3.9c0.6-0.3,1.2-0.5,1.7-0.8c16.1-8.9,24.8-22.8,26.1-41.7
			c0.9-13.4-2.4-24.2-9.9-32.5c-7.6-8.3-19.5-14.3-35.9-18c12.3-1.6,22-5.9,29.1-12.9c7.1-7,11.1-16,11.9-27.1
			c1.2-17.3-4.8-31.2-18.1-41.6c-5.4-4.2-11.8-7.6-19.1-10.3c-10.7-4-23.5-6.4-38.4-7.1l-22-1.1l-45.1-2.2l-47.2-2.3l-2.7-0.1
			L718,378.2l-14.2-144.5l-52.6-3.3l-19.6-1.2l-4.1,8.8l-14,29.7c-4.4,9.4-8.1,18-10.9,25.6c-2.8,7.6-5.1,14.8-6.8,21.6l-1.2-0.1
			c-0.3-11-2.7-25.1-7-42.4c-0.7-2.6-1.2-4.5-1.5-5.8l-8.2-33l-2-8l-1-0.1l-63.2-4l-8.2-0.5l-1.8,5.9l-11.7,38.6
			c-3-4.9-6.6-9.7-10.7-14.2c-9.8-10.7-21.7-19.4-35.7-26c-3.4-1.6-6.8-3.1-10.4-4.4c-0.6-0.2-1.1-0.4-1.7-0.6
			c-10.7-3.9-22.1-6.6-34.4-8.1c-17.1-2.1-33.5-1.6-49.1,1.4c-4.3,0.8-8.5,1.9-12.7,3.1c-10.7,3.1-20.7,7.5-30.1,13.1
			c-0.1,0.1-0.2,0.1-0.3,0.2c-12.9,7.7-23.3,17.2-31.2,28.4c-7.9,11.2-13.1,23.9-15.6,37.9c-1.8,10.1-2,19.8-0.5,29.2
			c-7.5-6.1-18.2-9.9-32.3-11.4c10.1-2.5,17.6-7.1,22.6-13.7c5-6.6,7.1-14.5,6.2-23.9c-1.4-14.7-8.4-25.7-21-33.2
			c-11.9-7-27.5-10.1-46.9-9.3c-1.2,0.1-2.5,0.1-3.7,0.2l-78.7,5.1l-20.2,1.3L99.1,403.3z M417.8,315.8
			c-1.9,10.7-6.9,18.9-15.1,24.6c-8.1,5.6-18,7.7-29.4,6.3c-11.5-1.4-20.2-5.8-26.1-13.1c-5.9-7.3-7.9-16.4-6-27.1
			c1.9-10.7,7-19,15.2-24.7c8.2-5.8,18.1-7.9,29.6-6.5c11.5,1.4,20.1,5.8,26,13.2C417.8,295.8,419.8,304.9,417.8,315.8z
			 M833.7,305.4c-3.9,2.3-9.4,3.2-16.5,2.9l-11.5-0.6l2-28.4l11.5,0.6c7.1,0.3,12.4,1.8,16,4.4c3.6,2.6,5.2,6.2,4.8,10.8
			S837.6,303.2,833.7,305.4z M835.5,381.2c-4.9,2.6-11.8,3.7-20.6,3.2l-14.7-0.7l2.3-32.4l14.7,0.7c8.8,0.4,15.4,2.1,20,5.1
			c4.5,3,6.6,7.1,6.2,12.4C843.1,374.7,840.4,378.6,835.5,381.2z M182.6,296.2c-3,2.3-7.4,3.6-13.5,4l-9.7,0.6l-2.3-24l9.7-0.6
			c6-0.4,10.7,0.3,14,2.1c3.3,1.8,5.2,4.7,5.6,8.6C186.9,290.8,185.6,293.9,182.6,296.2z M194.7,359.6c-3.8,2.6-9.4,4.2-16.8,4.7
			l-12.4,0.8l-2.6-27.4l12.4-0.8c7.4-0.5,13.2,0.3,17.5,2.4c4.2,2.1,6.5,5.3,7,9.8C200.2,353.4,198.5,356.9,194.7,359.6z"/>
		<path class="st1" d="M619.7,684.1h-0.4v10.9c2.3,0,4-0.5,5-1.3c1-0.9,1.6-2.2,1.6-4.1C625.8,685.9,623.8,684.1,619.7,684.1z"/>
		<path class="st1" d="M572.5,682.7h-1.6v5.5h1.6c1,0,1.7-0.2,2.2-0.7c0.5-0.5,0.8-1.1,0.8-2c0-0.9-0.3-1.6-0.8-2.1
			C574.2,682.9,573.5,682.7,572.5,682.7z"/>
		<path class="st1" d="M543.5,684.1H543v10.9c2.3,0,4-0.5,5-1.3c1-0.9,1.6-2.2,1.6-4.1C549.6,685.9,547.5,684.1,543.5,684.1z"/>
		<path class="st1" d="M680.8,738.8V638.2H310.4v100.6H680.8z M352.1,684.6h-5.6v18.8h-10.1v-18.8h-5.6v-9.2h21.3V684.6z
			 M380.8,703.5h-10.1v-9.9h-6.1v9.9h-10.1v-28h10.1v9.3h6.1v-9.3h10.1V703.5z M402.6,703.5h-18.9v-28h18.7v7.6h-8.9v2.7h8v7.2h-8
			v2.9h9.1V703.5z M441.7,695.4c-1.3,4.7-4.2,8.7-8.4,11.4c-5.9,3.7-13.1,4-19.2,0.8c-6-3.1-10-9.2-10.4-15.9
			c-0.4-6,1.9-11.9,6.5-15.9c4.9-4.3,11.5-5.8,17.6-4.3c0.4,1.6,1.1,3,2.2,4.2c1,1.1,2.3,2,3.7,2.7c1.7,0.8,3.5,1.1,5.4,0.9
			c2.2,3.2,3.5,7.2,3.5,11.1C442.4,692,442.2,693.7,441.7,695.4z M470,703.5h-10.1v-9.9h-6.2v9.9h-10.1v-13.2v-14.8h1.5l-1.5-4.3
			c0,0-3,1.3-4.4,2c0.8-1.1,1.6-2.2,2.3-3.3c-2.8,0.1-4.7,2.4-4.7,2.4l3.5,2.5c0,0-1.5,2.1-2.1,3c-1.5,0.2-2.9-0.1-4.3-0.7
			c-2.3-1-4.2-3-5-5.5c0.8-1,2.2-3,2.2-3s2.7,2,4.2,2.8c2.4-2.6,5.3-3.2,5.3-3.2l-5.1-4.7l6.9,0.6l-2-8.5l5.8,7.5l6-7.1l-2.7,9
			l5.9-0.2l-5,3.9l4,4.1l-5.9-1.2l-1.3,3.7h6.3v9.3h6.2v-9.3H470V703.5z M498.7,690.7c0,2-0.1,3.6-0.4,4.9c-0.3,1.3-0.7,2.4-1.3,3.2
			c-1.1,1.7-2.6,3.1-4.6,4c-1.9,0.9-4.2,1.4-6.7,1.4s-4.7-0.5-6.7-1.4c-1.9-0.9-3.5-2.3-4.6-4c-0.5-0.9-1-1.9-1.2-3.2
			c-0.3-1.3-0.4-2.9-0.4-5v-15.2H483v15.3c0,1.8,0.2,3,0.6,3.7c0.4,0.7,1.1,1,2.1,1c1,0,1.7-0.3,2.2-1c0.4-0.7,0.6-1.9,0.6-3.6
			v-15.3h10.1V690.7z M529.5,703.5h-9.9l-8.6-14.5c0.1,0.6,0.2,1.3,0.2,2c0,0.7,0.1,1.5,0.1,2.4v10.1h-9.7v-28h9.9l8.7,14.6
			c-0.1-0.7-0.2-1.4-0.2-2.1c0-0.8-0.1-1.8-0.1-3.1v-9.4h9.7V703.5z M557.9,696.7c-1.3,2.1-3.1,3.8-5.6,5.1
			c-1.2,0.6-2.7,1.1-4.5,1.3c-1.8,0.3-4.3,0.4-7.3,0.4H533v-28h8.1c2.6,0,4.8,0.1,6.6,0.4c1.8,0.3,3.3,0.7,4.5,1.3
			c2.5,1.3,4.3,3,5.6,5.1c1.3,2.1,1.9,4.5,1.9,7.2C559.8,692.2,559.1,694.6,557.9,696.7z M575.8,703.5l-4.9-9.2v9.2h-9.9v-28h12.6
			c3.7,0,6.5,0.8,8.4,2.4c1.9,1.6,2.9,3.9,2.9,7c0,2-0.5,3.6-1.4,4.9c-1,1.3-2.3,2-4,2.2l7.5,11.4H575.8z M607.1,703.5h-18.9v-28
			h18.7v7.6H598v2.7h8v7.2h-8v2.9h9.1V703.5z M634.1,696.7c-1.3,2.1-3.1,3.8-5.6,5.1c-1.2,0.6-2.7,1.1-4.5,1.3
			c-1.8,0.3-4.3,0.4-7.3,0.4h-7.4v-28h8.1c2.6,0,4.8,0.1,6.6,0.4c1.8,0.3,3.3,0.7,4.5,1.3c2.5,1.3,4.3,3,5.6,5.1
			c1.3,2.1,1.9,4.5,1.9,7.2C636.1,692.2,635.4,694.6,634.1,696.7z M647.2,704.2c-3.7,0-7.4-1-11-3.1l3.2-7.8c1.4,1,2.7,1.7,3.9,2.2
			c1.1,0.5,2.2,0.7,3.1,0.7c0.7,0,1.2-0.1,1.6-0.4c0.4-0.3,0.6-0.6,0.6-1.1c0-0.8-1-1.4-3-1.8c-0.3,0-0.6-0.1-0.8-0.1
			c-0.3-0.1-0.5-0.1-0.6-0.2c-2.1-0.5-3.7-1.4-4.8-2.7c-1.1-1.3-1.6-2.9-1.6-4.9c0-3,1.1-5.4,3.2-7.3c2.1-1.9,5-2.9,8.5-2.9
			c3.2,0,6.4,0.9,9.4,2.5l-3.1,7.3c-1-0.7-1.9-1.2-2.9-1.6c-1-0.4-1.9-0.6-2.8-0.6c-1.5,0-2.2,0.4-2.2,1.3c0,0.8,1.4,1.5,4.2,2.1
			c0.4,0.1,0.8,0.2,1,0.2c2,0.4,3.5,1.3,4.6,2.7c1.1,1.3,1.6,3,1.6,4.9c0,3.1-1.1,5.6-3.4,7.6C653.7,703.2,650.8,704.2,647.2,704.2z
			 M662.2,704.6c-2,0-3.6-1.6-3.6-3.7s1.6-3.6,3.6-3.6s3.7,1.6,3.7,3.6S664.2,704.6,662.2,704.6z"/>
	</g>
	<g>
		<g>
			<path d="M419.3,94.3c-7.1-5.9-18.3-9.2-33.6-9.9l-3.3-0.2l-4.7,66.9c16.9,0.7,29.4-1.4,37.5-6.4c8.1-5,12.6-13.3,13.4-24.7
				C429.5,108.7,426.4,100.1,419.3,94.3z M408.6,133.8c-2.8,1.7-7.6,3.5-15.9,4.3l1.6-23.1c9.3,1.4,14.3,4,16.9,6.1
				c1.2,1,2.5,2.4,3.5,4.7C413.1,130.4,410.6,132.5,408.6,133.8z"/>
			<path d="M386,275.1c-11.5-1.4-21.3,0.8-29.6,6.5c-8.2,5.8-13.3,14-15.2,24.7c-1.9,10.7,0.1,19.8,6,27.1
				c5.9,7.3,14.6,11.7,26.1,13.1c11.5,1.4,21.3-0.7,29.4-6.3c8.1-5.6,13.2-13.8,15.1-24.6c1.9-10.8,0-19.9-5.9-27.4
				C406.2,281,397.5,276.6,386,275.1z M395.5,329.8c-5.5,3.8-12.3,5.2-20.6,4.2c-8.1-1-13.9-3.8-17.7-8.4c-0.8-1-1.6-2.2-2.3-3.8
				c1.6-5.4,4.5-9.5,8.9-12.6h0c4.4-3.1,9.6-4.6,15.7-4.6c1.6,0,3.3,0.1,5,0.3c8.1,1,13.8,3.7,17.5,8.4c0.8,1,1.7,2.3,2.4,4
				C402.7,322.7,399.9,326.8,395.5,329.8z"/>
			<path d="M835.2,284.3c-3.6-2.6-8.9-4-16-4.4l-11.5-0.6l-2,28.4l11.5,0.6c7.1,0.3,12.6-0.6,16.5-2.9c3.9-2.3,6-5.7,6.3-10.3
				S838.7,286.9,835.2,284.3z"/>
			<path d="M180.9,278.3c-3.3-1.8-8-2.5-14-2.1l-9.7,0.6l2.3,24l9.7-0.6c6-0.4,10.5-1.7,13.5-4c3-2.3,4.2-5.4,3.9-9.3
				C186.1,283,184.3,280.2,180.9,278.3z"/>
			<path d="M837.2,357.2c-4.5-3-11.2-4.7-20-5.1l-14.7-0.7l-2.3,32.4l14.7,0.7c8.8,0.4,15.6-0.6,20.6-3.2c4.9-2.6,7.6-6.5,7.9-11.6
				C843.8,364.3,841.7,360.2,837.2,357.2z"/>
			<path d="M192.8,339.3c-4.2-2.1-10-2.9-17.5-2.4l-12.4,0.8l2.6,27.4l12.4-0.8c7.4-0.5,13-2,16.8-4.7c3.8-2.6,5.4-6.1,5-10.5
				C199.4,344.6,197,341.3,192.8,339.3z"/>
			<path d="M968.2,519.3c1.8-18.3-1.9-35.3-11.2-50.4l0,0c-7.5-12.3-18.4-22.9-32.4-31.7c8.2-9.9,13.1-22.3,14.1-36.7
				c0.3-4.8,0.2-9.4-0.4-13.7c0.1-1.1,0.3-2.2,0.4-3.3c1.2-16.9-3.2-31.1-13.2-42c-0.7-0.7-1.5-1.4-2.2-2.1
				c6.2-8.2,9.8-18.1,10.6-29.4c0.3-4.6,0.1-9-0.4-13.3c0.2-1.2,0.3-2.5,0.4-3.7c1.5-21.2-6.3-39.2-22.5-52.2L895.1,50.4l-57.7-4.1
				l0-0.1l-4.5-0.3l0,0.1l-36-2.6l-24.1,49.5c-1.4,3-2.8,5.9-4.1,8.7c-0.1-0.4-0.2-0.8-0.3-1.2l-14.2-60l-38.8-2.8l0,0l-3-0.2l0,0
				L656,33.2l-24.9,79.2l-16.3-57.4l-97.4-8.5l-13.9,24.1c-9.9-14.8-24.5-27.2-43.6-36.7c-9.4-4.7-21.2-8.3-36-10.9
				c-14-2.5-31-4.3-50.7-5.2l-73-3.6l-7,99.5l-40.6-73.5l-103.4,8l-54.9,179l-24.5,1.6l1.6,16.9l-1.6,0.1l15.7,165.3
				c-17.4,11.9-27.3,28-29.3,48.2c-0.5,4.9-0.3,9.7,0.4,14.2c-0.1,1-0.3,1.9-0.4,2.8c-1.1,11.3,1,21.4,6.2,30.4l-31,50.6l7.7,4.4
				l-7.7,12.6l11.5,6.5c12.9,7.3,26.3,13.1,39.6,17.3c13.4,4.2,27.1,6.7,40.9,7.7c27.6,1.8,51.1-3.1,70.1-14.8
				c10.4-6.4,18.5-14.2,24.1-23.3c5.5,6.2,11.9,11.7,19.2,16.7c12.4,8.6,26.5,14.9,41.9,18.7c15.1,3.8,31.3,5.1,48.3,3.9
				c9.3-0.6,18.6-2.1,27.6-4.4c6-1.6,12.1-3.5,18.1-5.9l17.1,18.9l73.5-33.1c10.8,3.8,22.9,6.2,36.1,7c17.1,1,32.9-0.8,46.9-5.4
				c1.6-0.5,3-1.2,4.6-1.8l-5.9,21.2l4.8-0.5l-4.8,17.5L656,609.8l3.4-23l39.3-3.8l10.1,21.7l39.7-3.9l-1.4,14.2l64.7,4.4
				c14.3,1,26.9,1.5,37.6,1.5c5.6,0,10.7-0.1,15.3-0.4c14-0.8,26-2.9,35.7-6.3c19.7-7,35.5-17.1,47.1-30.2
				c11.9-13.5,18.9-29.5,20.7-47.6C968.8,530.5,968.8,524.9,968.2,519.3C968.2,519.4,968.2,519.3,968.2,519.3z M245.3,53.5
				l57.5,104.1L312,27.5l60.6,2.9c19.2,0.9,35.6,2.6,49.1,5c13.5,2.4,24.3,5.7,32.6,9.8c17.4,8.7,30.5,19.8,39.2,33.3
				c4,6.2,6.9,12.7,8.8,19.6L524.4,60l80.5,7.1l25.5,89.9l34.7-110.3l78.8,5.7L754.5,97c0.3,1.4,0.9,3.5,1.5,6.3
				c4.5,18.8,6.8,34.3,7,46.3l1.3,0.1c1.9-7.4,4.5-15.2,7.7-23.5c3.2-8.3,7.3-17.5,12.3-27.8l20.3-41.7l78.7,5.7l14.5,169.9
				c-3-1.5-6.1-2.9-9.4-4.1c-12-4.4-26.2-7.1-42.2-7.9l-23-1.1l-1.5-53.9c0-5.4,0-10.8-0.1-16.2c0-5.4,0.1-10.8,0.2-16.2
				c-1.4,5-3.2,10.3-5.4,15.8c-2.2,5.5-4.8,11.4-7.8,17.7l-24.2,50.9l-56.3-2.8l-13.7-54.9c-1.8-6.6-3.1-12.8-4.1-18.6
				c-1-5.8-1.6-11.2-2-16.3c-1.1,5.4-2.1,10.8-3.2,16c-1.1,5.3-2.2,10.6-3.3,15.9l-15.1,63.2l-63.1-3.9l-9.8,20.8l-22.6-2l-5.3-21.2
				l-91.9-5.7l-5.4,17.9l-22.1-1.9c-5.5-3.7-11.3-7.1-17.4-10c-3.6-1.7-7.3-3.3-11.1-4.7l8-13.8c-0.9,0.3-1.7,0.7-2.5,1
				c-7.7,2.9-17.3,4.8-28.4,6c-5.4-1.2-10.8-2.1-16.4-2.8c-18.3-2.2-36.2-1.7-53.1,1.6c-1.7,0.3-3.4,0.7-5.1,1.1l-13.6-0.7l2.1,3.8
				c-10.7,3.4-21,7.9-30.3,13.5l-0.4,0.2c-6.3,3.8-12.2,8.1-17.5,12.7l-23.5,1.8l-9.5-22l-58.6,4.5l-0.9,5.2c-0.9,0-1.8,0-2.8,0
				l-1.1,0c-1,0-1.9,0.1-2.9,0.1l-73.9,4.8l51-166.1L245.3,53.5z M809.8,210.9l0.2,7.5l-3.7-0.2L809.8,210.9z M708,203.2l4.5,18.2
				l-8.7-0.6L708,203.2z M600.4,265.3c-0.3,0.7-0.6,1.4-0.9,2l-0.5-2.2L600.4,265.3z M83.6,240.7l20.2-1.3l78.7-5.1
				c1.3-0.1,2.5-0.1,3.7-0.2c19.4-0.8,35.1,2.3,46.9,9.3c12.6,7.5,19.6,18.5,21,33.2c0.9,9.4-1.2,17.3-6.2,23.9
				c-5,6.6-12.5,11.1-22.6,13.7c14,1.5,24.8,5.3,32.3,11.4c-1.4-9.4-1.3-19.1,0.5-29.2c2.5-14,7.7-26.6,15.6-37.9
				c7.9-11.2,18.3-20.7,31.2-28.4c0.1-0.1,0.2-0.1,0.3-0.2c9.4-5.6,19.4-10,30.1-13.1c4.1-1.2,8.3-2.3,12.7-3.1
				c15.7-3,32-3.5,49.1-1.4c12.3,1.5,23.8,4.2,34.4,8.1c0.6,0.2,1.1,0.4,1.7,0.6c3.6,1.3,7,2.8,10.4,4.4c13.9,6.7,25.8,15.3,35.7,26
				c4.1,4.5,7.6,9.3,10.7,14.2l11.7-38.6l1.8-5.9l8.2,0.5l63.2,4l1,0.1l2,8l8.2,33c0.3,1.3,0.8,3.2,1.5,5.8
				c4.3,17.3,6.6,31.4,7,42.4l1.2,0.1c1.7-6.8,4-14,6.8-21.6c2.8-7.6,6.5-16.1,10.9-25.6l14-29.7l4.1-8.8l19.6,1.2l52.6,3.3
				L718,378.2l10.7-150.9l2.7,0.1l47.2,2.3l45.1,2.2l22,1.1c14.9,0.7,27.7,3.1,38.4,7.1c7.3,2.7,13.7,6.1,19.1,10.3
				c13.3,10.4,19.4,24.3,18.1,41.6c-0.8,11.1-4.7,20.1-11.9,27.1c-7.1,7-16.8,11.3-29.1,12.9c16.4,3.7,28.3,9.7,35.9,18
				c7.6,8.3,10.9,19.2,9.9,32.5c-1.3,18.9-10,32.8-26.1,41.7c-0.5,0.3-1.2,0.6-1.7,0.8c-4.8-1.4-10-2.7-15.8-3.9
				c-1.6-0.3-3.3-0.6-5-1c-12-2.2-26.4-3.8-42.5-4.9l-69.1-4.7l-2.1,21.5l-28.5-1.4l-18.5-31.6l0.1-1.8l-1.3-0.1l-9.2-15.7
				l-55.3,5.4l-2.4-58.5c-0.1-5-0.2-9.9-0.2-14.9c-0.1-4.9-0.1-9.9,0-14.9c-1.2,4.6-2.8,9.4-4.8,14.6c-1.9,5.1-4.3,10.5-6.9,16.3
				l-28.1,60.9l-41.7-2.6l-16.7-63.7c-1.7-6-3-11.7-3.9-17c-0.9-5.3-1.6-10.3-2-15c-0.9,5-1.8,9.9-2.8,14.7
				c-0.9,4.8-1.9,9.7-2.9,14.6l-14.4,63.6l-55.7-3.5c-4.5,3.7-9.2,7.3-14.5,10.5c-1.1,0.7-2.3,1.2-3.5,1.9l-29.7-1.8l-1.2,14.1
				c-2.9,0.7-5.7,1.5-8.7,2.1c-3,0.6-6,1-9,1.4c-1.3-1-2.7-2-4.1-3c-3.3-2.3-7-4.6-11.4-6.9c-9.5-5.1-19.8-9.1-30.5-11.8
				c-12.9-3.2-26.6-4.7-40.8-4.3c-2.5,0.1-5,0.2-7.6,0.3c-3.7,0.2-7.4,0.7-11,1.1c-6-4.4-11.5-9.3-16.5-14.7
				c-3.4-3.7-6.4-7.5-9-11.4c-0.5,12.6-5.9,22.7-16.2,30.3c-11.2,8.3-28,13.4-50.2,15.5c-4-1.5-8.1-3-12.1-4.2
				c-9-2.7-18.4-4.6-27.9-5.7c-2.5-0.3-5-0.5-7.5-0.7c-16.8-1.1-32.1,0.3-45.6,4.3c-4.3,1.3-8.4,2.8-12.3,4.6L83.6,240.7z
				 M753.1,461.5l7.5,0.4l-1.1,10.6L753.1,461.5z M510.8,489.7c-0.7,8.7-2.5,11.2-2.4,11.2c-0.1,0-1.1,0.5-3.7,0.3
				c-1.5-0.1-2.4-0.3-2.9-0.4l7.4-86.2l-1.5-0.1l0-0.5l9.5,0.6L510.8,489.7z M544.4,370.1l7.8,30l-14.4-0.9L544.4,370.1z M637,376.3
				l0.5,12l-6.3,0.6L637,376.3z M95.5,419.6c5.9-3.7,12.4-6.5,19.5-8.6c12.1-3.6,25.8-4.8,41.1-3.8c2.3,0.2,4.7,0.4,7,0.7
				c8.8,1,17.3,2.7,25.7,5.2c10.6,3.2,21.2,7.6,31.7,13.3l-25.5,40.9c-6.4-4.6-12.8-8.2-19.4-10.8c-6.6-2.6-13.1-4.2-19.5-4.6
				c-4.9-0.3-8.7,0.1-11.5,1.3c-2.8,1.2-4.3,3-4.6,5.4c-0.4,4.6,8.9,9.2,28,14c3.1,0.8,5.4,1.4,7.1,1.8c13.2,3.4,23.2,9.2,30.2,17.5
				c0.3,0.3,0.5,0.7,0.8,1c-1-12.2,0.6-23.8,4.6-34.6c4.3-11.3,11.1-21.5,20.5-30.4c9.4-9.1,20.6-16.2,33.7-21.4
				c13.1-5.2,27.5-8.4,43.3-9.4c2.4-0.2,4.7-0.2,7-0.3c13.1-0.3,25.6,1,37.5,3.9c9.9,2.5,19,6,27.5,10.6c3.5,1.9,6.9,3.9,10.2,6.2
				c11,7.7,19.7,16.8,26.1,27.4c4.9,8,8.3,16.7,10.1,26l5.6-65l62.9,3.7l-6.8,79.2c-0.8,9.2,0,15.6,2.3,19.2c2.3,3.6,6.7,5.6,13.1,6
				c6.3,0.4,11-1.1,14-4.6c3-3.4,4.9-9.6,5.7-18.6l6.8-79.2l62.9,3.7l-6.8,78.8c-0.4,4.3-0.9,8.2-1.5,11.9l28.4-102.5l78.7-7.6
				l7.2-0.7l0.7,1.2l14.9,25.4l4.9,8.3l48.5,82.7l7.9-79.9l0.8-8.6l56.8,3.9c15.8,1.1,29.5,2.7,41.2,4.7c1.6,0.3,3.2,0.6,4.8,0.9
				c12.6,2.5,22.7,5.8,30.4,9.8c16.1,8.5,28.1,19.2,35.9,32c7.8,12.8,10.9,27,9.4,42.5c-1.5,15.5-7.4,29-17.6,40.4
				c-10.2,11.5-24.1,20.4-41.8,26.6c-8.6,3-19.4,4.8-32.2,5.6c-12.9,0.8-30,0.4-51.3-1.1l-51.6-3.5l1.6-16.6l-46.1,4.5l-10.1-21.7
				l-58.2,5.7l-3.4,23l-82.9,8.1l17.9-64.6c-2,4.4-4.4,8.2-7.3,11.3c-7.8,8.7-18,15-30.5,19.1c-12.5,4.1-26.6,5.7-42.1,4.8
				c-15.6-0.9-29.3-4.2-41-9.7c-11.7-5.5-20.7-13.1-26.9-22.5c-3.1-4.6-5.2-10.3-6.2-17c-0.1-0.4-0.1-0.9-0.1-1.3
				c-2.2,7.5-5.5,14.7-10.1,21.6l34.1,26.8l-56.9,25.6l-17-18.8c-8.2,3.7-16.4,6.6-24.7,8.8c-8.3,2.1-16.7,3.5-25.3,4.1
				c-15.7,1.1-30.5-0.1-44.4-3.6c-13.9-3.4-26.4-9.1-37.7-16.8c-11.1-7.6-19.8-16.7-26.2-27.2c-1.4-2.3-2.6-4.6-3.7-7
				c-2.2,17-11.3,30.6-27.4,40.5c-16.7,10.3-37.5,14.6-62.5,12.9c-12.8-0.9-25.4-3.2-37.9-7.1c-12.5-3.9-24.9-9.3-37.1-16.2
				l26.8-43.8c9.5,6.5,18,11.4,25.6,14.6c7.6,3.2,14.8,5.1,21.7,5.5c4.8,0.3,8.6-0.2,11.5-1.5c2.9-1.3,4.5-3.3,4.7-5.9
				c0.4-4.5-6.1-8.4-19.7-11.7c-4.4-1.1-7.8-2-10.2-2.6c-14.3-3.9-24.9-9.9-31.9-18c-7-8-9.9-17.7-8.9-28.9
				C70.5,443.1,79.4,429.5,95.5,419.6z"/>
			<path d="M876.1,488.9c-6.5-5.6-16.9-8.9-31.3-9.9l-3.1-0.2l-6.2,62.7c15.8,1,27.6-0.8,35.4-5.3c7.8-4.6,12.2-12.2,13.3-23
				C885.3,502.6,882.6,494.5,876.1,488.9z M864.5,525.1c-2.4,1.4-6.4,2.9-13.2,3.5l1.9-18.8c8.1,1.5,12.3,3.8,14.5,5.7
				c0.8,0.7,1.6,1.6,2.3,2.9C868.6,522.2,866.5,524,864.5,525.1z"/>
			<polygon points="662.3,453.5 655.2,514.4 687.4,511.2 663.6,453.4 			"/>
			<path d="M340.1,461.5c-7-5.5-15.7-7.9-26.2-7.2c-10.5,0.7-18.7,4.3-24.5,10.8c-5.8,6.5-8.3,14.6-7.3,24.4
				c1,9.8,4.9,17.4,11.7,22.7c6.8,5.3,15.7,7.7,26.4,6.9l3.8-0.3l-18.4-14.7l46.2-10.8c0.2-1.4,0.4-2.9,0.4-4.3
				c0-1.4-0.1-2.8-0.2-4.2C351,474.8,347.1,467.1,340.1,461.5z M297.2,493c0.6-0.9,1.2-1.7,1.8-2.3c3.6-3.9,8.8-6.1,15.9-6.6
				c0.9-0.1,1.8-0.1,2.6-0.1c3.8,0,7.1,0.7,10.1,1.9L297.2,493z"/>
			<polygon points="556.6,114 535,168.4 565.1,171 557.8,114.1 			"/>
			<polygon points="206.4,111.4 197.6,172.4 230,169.9 207.7,111.3 			"/>
		</g>
		<path d="M301.7,747.5H317v12.4h357.2v-12.4h15.3V629.5H301.7V747.5z M310.4,638.2h370.4v100.6H310.4V638.2z"/>
		<path d="M662.2,697.3c-2,0-3.6,1.6-3.6,3.6s1.6,3.7,3.6,3.7s3.7-1.6,3.7-3.7S664.2,697.3,662.2,697.3z"/>
		<path d="M657.7,688.8c-1.1-1.3-2.6-2.2-4.6-2.7c-0.3-0.1-0.6-0.1-1-0.2c-2.8-0.6-4.2-1.3-4.2-2.1c0-0.9,0.7-1.3,2.2-1.3
			c0.9,0,1.9,0.2,2.8,0.6c1,0.4,2,0.9,2.9,1.6l3.1-7.3c-3.1-1.7-6.2-2.5-9.4-2.5c-3.5,0-6.3,1-8.5,2.9c-2.1,1.9-3.2,4.3-3.2,7.3
			c0,2,0.5,3.6,1.6,4.9c1.1,1.3,2.7,2.2,4.8,2.7c0.2,0,0.4,0.1,0.6,0.2c0.2,0,0.5,0.1,0.8,0.1c2,0.4,3,1,3,1.8
			c0,0.4-0.2,0.8-0.6,1.1c-0.4,0.3-0.9,0.4-1.6,0.4c-1,0-2-0.2-3.1-0.7c-1.1-0.5-2.4-1.2-3.9-2.2l-3.2,7.8c3.7,2.1,7.3,3.1,11,3.1
			c3.6,0,6.5-1,8.7-2.9c2.2-2,3.4-4.5,3.4-7.6C659.3,691.8,658.8,690.2,657.7,688.8z"/>
		<path d="M628.5,677.3c-1.2-0.6-2.7-1-4.5-1.3c-1.8-0.3-4-0.4-6.6-0.4h-8.1v28h7.4c3.1,0,5.5-0.1,7.3-0.4c1.8-0.3,3.3-0.7,4.5-1.3
			c2.5-1.3,4.3-3,5.6-5.1c1.3-2.1,1.9-4.5,1.9-7.2c0-2.7-0.6-5.1-1.9-7.2C632.9,680.2,631,678.5,628.5,677.3z M624.3,693.6
			c-1,0.9-2.7,1.3-5,1.3v-10.9h0.4c4.1,0,6.1,1.8,6.1,5.4C625.8,691.4,625.3,692.7,624.3,693.6z"/>
		<polygon points="598,692.9 606.1,692.9 606.1,685.8 598,685.8 598,683.1 606.9,683.1 606.9,675.5 588.2,675.5 588.2,703.5 
			607.1,703.5 607.1,695.9 598,695.9 		"/>
		<path d="M583.6,689.8c1-1.3,1.4-2.9,1.4-4.9c0-3.1-1-5.4-2.9-7c-1.9-1.6-4.7-2.4-8.4-2.4h-12.6v28h9.9v-9.2l4.9,9.2h11.3
			l-7.5-11.4C581.3,691.9,582.6,691.1,583.6,689.8z M574.7,687.5c-0.5,0.5-1.2,0.7-2.2,0.7h-1.6v-5.5h1.6c1,0,1.7,0.2,2.2,0.7
			c0.5,0.5,0.8,1.2,0.8,2.1C575.5,686.3,575.2,687,574.7,687.5z"/>
		<path d="M552.3,677.3c-1.2-0.6-2.7-1-4.5-1.3c-1.8-0.3-4-0.4-6.6-0.4H533v28h7.4c3,0,5.5-0.1,7.3-0.4c1.8-0.3,3.3-0.7,4.5-1.3
			c2.5-1.3,4.3-3,5.6-5.1c1.3-2.1,1.9-4.5,1.9-7.2c0-2.7-0.6-5.1-1.9-7.2C556.6,680.2,554.7,678.5,552.3,677.3z M548,693.6
			c-1,0.9-2.7,1.3-5,1.3v-10.9h0.4c4.1,0,6.1,1.8,6.1,5.4C549.6,691.4,549.1,692.7,548,693.6z"/>
		<path d="M519.8,684.9c0,1.3,0,2.3,0.1,3.1c0,0.8,0.1,1.5,0.2,2.1l-8.7-14.6h-9.9v28h9.7v-10.1c0-0.9,0-1.7-0.1-2.4
			c0-0.7-0.1-1.4-0.2-2l8.6,14.5h9.9v-28h-9.7V684.9z"/>
		<path d="M488.6,690.8c0,1.7-0.2,2.9-0.6,3.6c-0.4,0.7-1.1,1-2.2,1c-1,0-1.7-0.3-2.1-1c-0.4-0.7-0.6-1.9-0.6-3.7v-15.3H473v15.2
			c0,2,0.1,3.7,0.4,5c0.3,1.3,0.7,2.3,1.2,3.2c1.1,1.7,2.6,3.1,4.6,4c1.9,0.9,4.2,1.4,6.7,1.4s4.7-0.5,6.7-1.4
			c1.9-0.9,3.5-2.3,4.6-4c0.6-0.9,1-1.9,1.3-3.2c0.3-1.3,0.4-2.9,0.4-4.9v-15.2h-10.1V690.8z"/>
		<path d="M459.9,684.8h-6.2v-9.3h-6.3l1.3-3.7l5.9,1.2l-4-4.1l5-3.9l-5.9,0.2l2.7-9l-6,7.1l-5.8-7.5l2,8.5l-6.9-0.6l5.1,4.7
			c0,0-2.9,0.6-5.3,3.2c-1.4-0.9-4.2-2.8-4.2-2.8s-1.4,2-2.2,3c0.7,2.5,2.6,4.5,5,5.5c1.3,0.6,2.8,0.9,4.3,0.7c0.6-0.8,2.1-3,2.1-3
			l-3.5-2.5c0,0,1.9-2.3,4.7-2.4c-0.8,1.1-1.6,2.2-2.3,3.3c1.5-0.8,4.4-2,4.4-2l1.5,4.3h-1.5v14.8v13.2h10.1v-9.9h6.2v9.9H470v-28
			h-10.1V684.8z"/>
		<path d="M433.6,678.2c-1.4-0.6-2.6-1.6-3.7-2.7c-1.1-1.2-1.8-2.6-2.2-4.2c-6.1-1.6-12.8,0-17.6,4.3c-4.6,4-6.9,9.9-6.5,15.9
			c0.5,6.6,4.4,12.8,10.4,15.9c6.1,3.2,13.3,3,19.2-0.8c4.2-2.7,7-6.6,8.4-11.4c0.5-1.7,0.7-3.4,0.7-5.1c0-4-1.2-7.9-3.5-11.1
			C437.1,679.3,435.2,679,433.6,678.2z"/>
		<polygon points="393.5,692.9 401.5,692.9 401.5,685.8 393.5,685.8 393.5,683.1 402.4,683.1 402.4,675.5 383.7,675.5 383.7,703.5 
			402.6,703.5 402.6,695.9 393.5,695.9 		"/>
		<polygon points="370.8,684.8 364.6,684.8 364.6,675.5 354.6,675.5 354.6,703.5 364.6,703.5 364.6,693.6 370.8,693.6 370.8,703.5 
			380.8,703.5 380.8,675.5 370.8,675.5 		"/>
		<polygon points="330.8,684.6 336.4,684.6 336.4,703.5 346.5,703.5 346.5,684.6 352.1,684.6 352.1,675.5 330.8,675.5 		"/>
	</g>
</g>
</svg>
